<svg width="243" height="250" fill="none" xmlns="http://www.w3.org/2000/svg"><path fill-rule="evenodd" clip-rule="evenodd" d="M78.71 59.96c8.764 2.53 16.765 2.744 20.004.913 8.123-4.589.364-36.755-9.763-47.543C78.825 2.543 42.647 6.352 47.586 31.778c1.713 8.825 7.418 15.581 14.476 20.45l2.408 47.49 27.961-7.492-13.72-32.266z" fill="#915B3C"/><path fill-rule="evenodd" clip-rule="evenodd" d="M93.105 18.279c-.714-1.559-1.876-3.19-2.837-4.59-1.238-1.802-2.784-3.312-4.41-4.69-3.062-2.594-6.482-4.761-10.045-6.365-6.51-2.93-13.983-3.624-20.45-1.016a19.998 19.998 0 00-8.413 6.377c-2 2.614-3.66 6.117-6.869 7.197-3.49 1.174-7.585-1.091-10.952-2.265-3.796-1.324-7.638-2-11.557-1.614-6.564.648-11.9 4.357-14.849 10.68-3.138 6.73-4.33 15.685.648 22.153.925 1.203 1.955 2.15 3.247 2.817 1.186.611 2.888 1.144 3.646 2.426.805 1.362.088 3.59-.031 5.047-.171 2.086-.195 4.234.558 6.25 1.237 3.31 4.24 5.983 7.091 7.613 2.901 1.66 6.072 2.207 9.247 2 2.12-.138 4.235-.468 6.24-1.166.995-.348 1.816-.87 2.739-1.358.898-.475 1.5-.364 2.454-.056 4.423 1.43 8.73 1.288 12.985-.242 3.592-1.29 7.588-3.317 9.91-6.64 2.58-3.69 1.478-7.531-.41-11.445.94.19 3.304-.17 1.492-1.444-.716-.504-1.815-.493-2.614-.689-.931-.227-1.91-.582-2.735-1.139-3.331-2.249-2.358-8.903.578-10.744 4.363-2.734 7.23 3.71 11.09 4.542 2.22.478 3.895-1.437 4.982-3.225 1.457-2.397 2.127-5.233 2.603-8.065.392-2.332.712-4.675 1.125-7.002.194-1.086 1.026-4.234-.052-5.115 3.223-1.592 7.395-1.192 10.825-.12 1.418.443 2.568 1.042 3.579 2.224.216.253.749 1.036 1.136.97.723-.123.228-.915.05-1.306z" fill="#191847"/><path fill-rule="evenodd" clip-rule="evenodd" d="M158.875 87.121l-37.244 29.874 18.11 13.673 25.116-32.74c15.014-7.136 21.668-11.594 19.966-13.372-1.436-1.5-3.258-1.118-4.936-.766-1.307.274-2.527.53-3.409-.136-2.016-1.52.095-8.456 2.379-14.95 2.282-6.494-1.182-5.353-3.066-4.144-5.859 5.682-11.498 13.202-16.916 22.561zm47.044 24.406l-16.354 13.153 4.239 18.01s10.235-10.542 19.829-15.138c12.234-5.86 16.955-9.52 21.829-18.648 2.608-4.883 3.942-14.012.244-16.257-1.418-.86-5.546 2.492-9.757 5.912-3.21 2.607-6.469 5.254-8.614 6.105-2.887 1.146-3.221-2.803-3.489-5.959-.192-2.265-.349-4.12-1.39-3.393-5.285 1.026-6.537 16.215-6.537 16.215z" fill="#915B3C"/><path fill-rule="evenodd" clip-rule="evenodd" d="M100.666 115.499c14.414-2.698 33.132-9.147 51.378-25.827l11.245 16.592c-11.69 16.579-29.579 31.661-47.091 34.243-13.799 2.035-23.75-13.354-15.532-25.008z" fill="#7733EA"/><path fill-rule="evenodd" clip-rule="evenodd" d="M83.479 245.778c-14.045.628-26.95 1.206-34.166 3.998-13.195-25.788-9.258-44.186-5.624-61.167 2.192-10.236 4.273-19.957 2.427-30.475-5.377-30.625 10.875-82.09 14.489-82.729l1.037-.183 28.64-5.05 3.28-.578c4.814 18.69 14.722 38.098 24.692 57.631 2.328 4.562 4.66 9.13 6.932 13.698 24.911 1.218 74.756-27.104 74.756-27.104s18.329 25.438 19.404 37.457c-28.103 21.645-53.364 33.54-75.139 37.872 2.984 12.861 3.584 25.493.271 37.717-4.439 16.379-34.714 17.735-61 18.913z" fill="url(#paint0_linear)"/><g filter="url(#filter0_dd)"><path d="M231.03 58.78c-4.918-12.929-20.299-6.928-21.629-.416-2.018-6.852-17.164-11.781-21.611.96-4.949 14.199 20.174 26.568 21.983 28.609 1.762-1.704 26.558-15.312 21.257-29.153z" fill="#D046FF"/><path d="M230.938 58.815h0c1.313 3.428.764 6.844-.834 10.076-1.599 3.233-4.247 6.276-7.121 8.945-2.873 2.668-5.968 4.958-8.456 6.688-1.018.709-1.934 1.323-2.692 1.83l-.48.323c-.418.28-.773.522-1.052.719a7.52 7.52 0 00-.525.399 5.044 5.044 0 00-.546-.444 28.97 28.97 0 00-1.071-.734c-.394-.26-.842-.55-1.336-.869l-.123-.08c-.542-.35-1.136-.735-1.768-1.152-2.532-1.668-5.683-3.846-8.622-6.403-2.94-2.557-5.662-5.49-7.342-8.662-1.678-3.17-2.312-6.577-1.087-10.095 1.105-3.166 2.872-5.227 4.926-6.436 2.056-1.21 4.407-1.571 6.687-1.325 2.281.246 4.486 1.1 6.246 2.318 1.761 1.218 3.068 2.794 3.565 4.48l.191-.009c.326-1.596 1.517-3.173 3.212-4.441 1.692-1.267 3.878-2.217 6.175-2.563 2.296-.347 4.699-.09 6.831 1.052 2.131 1.141 3.999 3.17 5.222 6.383z" stroke="#fff" stroke-width=".198"/></g><defs><linearGradient id="paint0_linear" x1="70.5" y1="113" x2="211.5" y2="346.5" gradientUnits="userSpaceOnUse"><stop stop-color="#8345F8"/><stop offset="1" stop-color="#fff"/></linearGradient><filter id="filter0_dd" x="176.076" y="44.021" width="66.768" height="66.054" filterUnits="userSpaceOnUse" color-interpolation-filters="sRGB"><feFlood flood-opacity="0" result="BackgroundImageFix"/><feColorMatrix in="SourceAlpha" values="0 0 0 0 0 0 0 0 0 0 0 0 0 0 0 0 0 0 127 0"/><feOffset dy="11.071"/><feGaussianBlur stdDeviation="5.535"/><feColorMatrix values="0 0 0 0 0.258247 0 0 0 0 0.310764 0 0 0 0 0.520833 0 0 0 0.05 0"/><feBlend in2="BackgroundImageFix" result="effect1_dropShadow"/><feColorMatrix in="SourceAlpha" values="0 0 0 0 0 0 0 0 0 0 0 0 0 0 0 0 0 0 127 0"/><feOffset/><feGaussianBlur stdDeviation="3.559"/><feColorMatrix values="0 0 0 0 0.258824 0 0 0 0 0.309804 0 0 0 0 0.521569 0 0 0 0.12 0"/><feBlend in2="effect1_dropShadow" result="effect2_dropShadow"/><feBlend in="SourceGraphic" in2="effect2_dropShadow" result="shape"/></filter></defs></svg>