<svg width="76" height="75" viewBox="0 0 76 75" fill="none" xmlns="http://www.w3.org/2000/svg">
<path d="M54.381 29.4812L54.381 29.4813L34.9 48.9629C34.9 48.9629 34.8999 48.9629 34.8999 48.9629C33.8632 49.999 32.1833 49.999 31.1466 48.9629C31.1466 48.9629 31.1466 48.9629 31.1466 48.9629L21.8729 39.6886L21.8728 39.6885C20.8362 38.6524 20.8362 36.972 21.8728 35.9359L21.8729 35.9358C22.909 34.8992 24.5894 34.8992 25.6256 35.9358L25.6256 35.9358L32.8462 43.1565L33.023 43.3332L33.1998 43.1564L50.6276 25.728C50.6277 25.728 50.6277 25.728 50.6277 25.728C51.6644 24.6918 53.3449 24.6919 54.381 25.728C55.4177 26.7647 55.4177 28.4451 54.381 29.4812ZM75.0468 37.3454C75.0468 57.753 58.5317 74.2653 38.1269 74.2653C17.7194 74.2653 1.20703 57.7502 1.20703 37.3454C1.20703 16.9379 17.7222 0.425537 38.1269 0.425537C58.5345 0.425537 75.0468 16.9407 75.0468 37.3454ZM69.739 37.3454C69.739 19.8719 55.5982 5.73333 38.1269 5.73333C20.6534 5.73333 6.51483 19.8742 6.51483 37.3454C6.51483 54.819 20.6557 68.9575 38.1269 68.9575C55.6005 68.9575 69.739 54.8167 69.739 37.3454Z" fill="white" stroke="#664DFF" stroke-width="0.5"/>
</svg>
