<svg fill="none" xmlns="http://www.w3.org/2000/svg" viewBox="0 0 543 592"><g filter="url(#filter0_d)"><path d="M223.371 379.698s8.252 24.707 14.68 41.453c6.001 15.635 24.162 49.217 40.785 67.654 16.623 18.43 23.994 25.706 33.891 32.88 9.892 7.175 25.437 15.287 25.437 15.287s-53.961 15.926-85.826-25.027c-28.311-36.395-28.973-89.211-28.967-132.247z" fill="#7733EA"/><path d="M223.371 379.698s17.027 22.136 29.585 37.204c11.722 14.062 42.441 41.385 66.513 55.729 23.556 14.035 34.329 18.228 47.314 22.208 12.985 3.981 32.314 6.967 32.314 6.967s-51.569 35.665-99.17 4.368c-41.745-27.435-62.567-81.89-76.556-126.476z" fill="#0037FF"/><path d="M224.078 380.171s24.887 15.966 55.123 32.33c34.026 18.408 61.057 26.369 80.352 30.113 0 0 27.907 5.844 51.951 6.187 15.551.219 44.468-2.594 44.468-2.594s-50.716 51.738-119.896 30.091c-39.477-12.356-67.805-38.36-101.674-81.525-3.783-4.823-7.067-9.814-11.031-15.074l.707.472z" fill="#8345F8"/><path d="M236.706 317.135c-3.172 11.245-13.08 59.446-13.08 59.446-1.673 10.745 4.726 20.771 4.726 20.771l7.877 10.981s4.536 11.935 11.222-5.732 12.89-14.803 23.876-18.144c10.981-3.34 34.823-7.797 62.213-28.024 29.939-22.108 48.319-57.442 44.547-116.528-3.683-57.672 62.651-62.539 74.114-64.33 3.122-.488 10.414-1.46 19.25-2.319 10.134-.988 22.625-1.734 33.341-2.683 14.271-1.257 24.769-1.774 24.769-1.774s-76.231-1.297-99.074-2.936c-.393-.028-4.924-.135-7.921-1.044-18.105-5.496-41.779-27.216-84.153-10.077-44.507 18.004-75.917 88.918-77.708 94.824-.005.006-20.445 54.989-23.999 67.569z" fill="#0037FF"/><path d="M265.873 273.172c-44.299 55.162-124.926 63.97-180.088 19.676-37.731-30.298-53.776-77.589-45.973-122.108h.006s54 123.978 226.055 102.432z" fill="url(#paint0_linear)"/><path d="M265.728 273.189c2.599 50.222-36.008 93.04-86.23 95.639-34.352 1.78-65.234-15.719-82.16-43.031v-.005c0 .005 87.302 40.229 168.39-52.603z" fill="url(#paint1_linear)"/><path d="M265.86 273.175c-76.338 12.845-148.516-37.922-161.22-113.395-8.685-51.62 12.704-101.426 51.513-131.865l.005.006S109.833 167.06 265.86 273.175z" fill="url(#paint2_linear)"/><path d="M265.854 273.148c-68.956-43.216-89.823-134.144-46.607-203.1 29.557-47.162 81.435-71.83 133.336-68.883v.006s-134.391 78.303-86.729 271.977z" fill="url(#paint3_linear)"/><path d="M413.509 184.989c7.489-8.584 9.072-20.109 9.072-20.109 2.998.909 7.534 1.016 7.921 1.044 22.843 1.634 99.074 2.936 99.074 2.936s-10.498.522-24.768 1.774c-10.717.943-23.208 1.696-33.341 2.684-8.837.859-16.129 1.83-19.25 2.318-5.294.82-22.304 2.307-38.708 9.353z" fill="#2EE5A8"/></g><defs><linearGradient id="paint0_linear" x1="215.665" y1="330.308" x2="65.94" y2="158.378" gradientUnits="userSpaceOnUse"><stop stop-color="#0037FF"/><stop offset="1" stop-color="#D046FF"/></linearGradient><linearGradient id="paint1_linear" x1="260.282" y1="335.599" x2="99.3" y2="285.783" gradientUnits="userSpaceOnUse"><stop stop-color="#0037FF"/><stop offset="1" stop-color="#D046FF"/></linearGradient><linearGradient id="paint2_linear" x1="184.288" y1="233.056" x2="184.288" y2="73.03" gradientUnits="userSpaceOnUse"><stop stop-color="#0037FF"/><stop offset="1" stop-color="#D046FF"/></linearGradient><linearGradient id="paint3_linear" x1="274.66" y1="168.94" x2="274.66" y2="13.088" gradientUnits="userSpaceOnUse"><stop stop-color="#0037FF"/><stop offset="1" stop-color="#D046FF"/></linearGradient><filter id="filter0_d" x=".888" y=".929" width="541.689" height="590.092" filterUnits="userSpaceOnUse" color-interpolation-filters="sRGB"><feFlood flood-opacity="0" result="BackgroundImageFix"/><feColorMatrix in="SourceAlpha" values="0 0 0 0 0 0 0 0 0 0 0 0 0 0 0 0 0 0 127 0"/><feOffset dx="-12" dy="26"/><feGaussianBlur stdDeviation="12.5"/><feColorMatrix values="0 0 0 0 0.347188 0 0 0 0 0.446083 0 0 0 0 0.841667 0 0 0 0.12 0"/><feBlend in2="BackgroundImageFix" result="effect1_dropShadow"/><feBlend in="SourceGraphic" in2="effect1_dropShadow" result="shape"/></filter></defs></svg>