<svg xmlns="http://www.w3.org/2000/svg" viewBox="0 0 23.7 21.8"><path fill="none" d="M0 0h23.7v21.8H0z"/><path d="M20.5.5c0-.3-.2-.5-.5-.5s-.5.2-.5.5v2.7h-2.7c-.3 0-.5.2-.5.5s.2.5.5.5h2.7v2.7c0 .3.2.5.5.5s.5-.2.5-.5V4.2h2.7c.3 0 .5-.2.5-.5s-.2-.5-.5-.5h-2.7V.5z" fill-rule="evenodd" clip-rule="evenodd" fill="#fff"/><path d="M20 8.9c-1.1 0-2-.9-2-2V5.7h-1.2c-1.1 0-2-.9-2-2 0-.4.1-.8.3-1.1-.9-.4-2-.6-3.1-.6-5 0-9 4-9 9s4 9 9 9 9-4 9-9c0-.8-.1-1.5-.3-2.2-.2 0-.5.1-.7.1zm-5.1-.8c.6 0 1.2.5 1.2 1.2 0 .6-.5 1.2-1.2 1.2-.6 0-1.2-.5-1.2-1.2s.5-1.2 1.2-1.2zm-5.8 0c.6 0 1.2.5 1.2 1.2 0 .6-.5 1.2-1.2 1.2-.6 0-1.2-.5-1.2-1.2s.5-1.2 1.2-1.2zm7 6.2c-1 1.2-2.6 2-4.2 2s-3.1-.7-4.2-2c-.5-.6.4-1.3.9-.7.8 1 2 1.5 3.3 1.5s2.5-.6 3.3-1.5c.5-.7 1.4.1.9.7z" fill="#fff"/></svg>