<svg width="23" height="23" fill="none" xmlns="http://www.w3.org/2000/svg"><path d="M8.521 0c-1.808 0-3.273 1.313-3.64 3.018C2.675 3.412.948 5.255.948 7.575c0 .232.025.44.06.65C.395 9.124 0 10.182 0 11.363c0 1.701.847 3.133 2.041 4.171a4.165 4.165 0 00-.147 1.036c0 2.342 1.919 4.26 4.26 4.26h.06c.551 1.07 1.505 1.895 2.78 1.895a3.306 3.306 0 002.368-1.007 3.306 3.306 0 002.367 1.007c1.276 0 2.23-.825 2.782-1.894h.058c2.223 0 4.046-1.73 4.232-3.906h.029c0-.06-.026-.118-.03-.178.004-.058.03-.118.03-.177 0-.351-.126-.651-.207-.976 1.228-1.043 2.1-2.5 2.1-4.231 0-1.18-.395-2.238-1.006-3.137.034-.21.06-.417.06-.65 0-2.32-1.727-4.162-3.935-4.558C17.475 1.314 16.01 0 14.202 0c-1.136 0-2.145.53-2.84 1.331C10.667.531 9.658 0 8.522 0zm0 1.894c1.058 0 1.894.836 1.894 1.893v1.894c0 1.58-1.261 2.84-2.84 2.84v1.894a4.65 4.65 0 002.84-.976v9.97c0 .796-.625 1.42-1.42 1.42a1.392 1.392 0 01-1.391-1.153l-.177-.917-.918.148a2.353 2.353 0 01-2.722-2.338c0-.292.048-.566.148-.828.008-.022.023-.038.03-.06a2.337 2.337 0 011.716-1.42l-.385-1.863a4.215 4.215 0 00-2.456 1.479 3.748 3.748 0 01-.946-2.515 3.693 3.693 0 01.828-2.338l.296-.355-.089-.473a2.706 2.706 0 01-.089-.621c0-1.58 1.262-2.84 2.84-2.84h.948v-.948c0-1.057.836-1.893 1.893-1.893zm5.681 0c1.058 0 1.894.836 1.894 1.893v.947h.947c1.579 0 2.84 1.261 2.84 2.84 0 .204-.038.4-.089.622l-.088.473.295.355c.538.66.83 1.486.829 2.338 0 1.136-.485 2.149-1.273 2.84-.646-.573-1.471-.947-2.396-.947a3.58 3.58 0 00-2.338.858l1.214 1.45a1.71 1.71 0 011.124-.414c.914 0 1.642.685 1.746 1.568-.078 1.247-1.073 2.22-2.338 2.22-.085 0-.19-.005-.355-.03l-.917-.149-.177.919a1.392 1.392 0 01-1.391 1.153c-.795 0-1.42-.625-1.42-1.42V9.439c.813.63 1.811.973 2.84.976V8.52a2.827 2.827 0 01-2.84-2.84V3.787c0-1.057.836-1.893 1.893-1.893z" fill="#664DFF"/></svg>