<svg width="26" height="26" fill="none" xmlns="http://www.w3.org/2000/svg"><path d="M21.906 2.875H19.75V1.75a.75.75 0 0 0-1.5 0v1.125H7.75V1.75a.75.75 0 0 0-1.5 0v1.125H4.094A3.097 3.097 0 0 0 1 5.969v15.937A3.097 3.097 0 0 0 4.094 25h17.812A3.097 3.097 0 0 0 25 21.906V5.97a3.097 3.097 0 0 0-3.094-3.094Zm-17.812 1.5H6.25v.75a.75.75 0 0 0 1.5 0v-.75h10.5v.75a.75.75 0 0 0 1.5 0v-.75h2.156c.88 0 1.594.715 1.594 1.594V7.75h-21V5.969c0-.88.715-1.594 1.594-1.594ZM21.906 23.5H4.094A1.596 1.596 0 0 1 2.5 21.906V9.25h21v12.656c0 .88-.715 1.594-1.594 1.594Z" fill="#664DFF" stroke="#664DFF" stroke-width=".3"/></svg>