<svg fill="none" xmlns="http://www.w3.org/2000/svg" viewBox="0 0 17 16"><path fill-rule="evenodd" clip-rule="evenodd" d="M12.596 1.543c0-.351.278-.623.606-.623.328 0 .606.272.606.623v.502h1.108c1.09 0 1.988.903 1.988 2.03v9.56c0 1.126-.899 2.03-1.988 2.03H2.892c-1.09 0-1.988-.904-1.988-2.03v-9.56c0-1.127.898-2.03 1.988-2.03H4v-.502c0-.351.278-.623.606-.623.327 0 .605.272.605.623v.502h7.385v-.502ZM5.211 3.292v.276a.615.615 0 0 1-.605.623A.615.615 0 0 1 4 3.568v-.276H2.892a.78.78 0 0 0-.777.782v.895h13.578v-.895a.78.78 0 0 0-.777-.783h-1.108v.277a.615.615 0 0 1-.606.623.615.615 0 0 1-.606-.623V3.29H5.211ZM2.115 6.216v7.419a.78.78 0 0 0 .777.783h12.024a.78.78 0 0 0 .777-.783v-7.42l-13.578.001Zm9.743 1.999a.582.582 0 0 0-.295-.314.517.517 0 0 0-.595.126L8.088 11.09 6.839 9.763a.544.544 0 0 0-.386-.17.53.53 0 0 0-.385.17.583.583 0 0 0-.16.41.61.61 0 0 0 .16.41L7.7 12.317a.544.544 0 0 0 .386.17.518.518 0 0 0 .385-.17l3.268-3.472a.581.581 0 0 0 .16-.41.61.61 0 0 0-.042-.221Z" fill="#664DFF"/></svg>