<svg width="27" height="27" fill="none" xmlns="http://www.w3.org/2000/svg"><path d="M22.498 6.386h-3.472l-.828-2.319a.819.819 0 00-.77-.54H9.593a.816.816 0 00-.769.54l-.83 2.319H4.524A2.042 2.042 0 002.48 8.428v11.643c0 1.129.915 2.043 2.043 2.043h17.975a2.042 2.042 0 002.043-2.043V8.428a2.042 2.042 0 00-2.043-2.042zm.204 13.685a.205.205 0 01-.204.204H4.523a.205.205 0 01-.204-.204V8.428c0-.112.092-.204.204-.204H9.29l.437-1.22.584-1.64h6.396l.585 1.64.436 1.22h4.77c.112 0 .204.092.204.204v11.643zM13.51 9.858a4.084 4.084 0 00-4.085 4.085 4.084 4.084 0 004.085 4.086 4.084 4.084 0 004.086-4.086 4.084 4.084 0 00-4.085-4.085zm0 6.537a2.452 2.452 0 11.002-4.904 2.452 2.452 0 01-.002 4.904z" fill="#664DFF"/></svg>