<svg width="33" height="20" fill="none" xmlns="http://www.w3.org/2000/svg"><path fill-rule="evenodd" clip-rule="evenodd" d="M32.415 6.674a1.017 1.017 0 010 1.441l-6.106 6.107a1.02 1.02 0 01-1.442 0l-3.053-3.053a1.02 1.02 0 111.441-1.442l2.333 2.335 5.386-5.388a1.019 1.019 0 011.441 0z" fill="#664DFF" stroke="#fff" stroke-width=".5"/><path d="M16.563 5.55h-2.524l-.601-1.685a.595.595 0 00-.56-.394H7.184a.593.593 0 00-.559.394l-.603 1.684H3.5c-.82 0-1.484.665-1.484 1.485v8.46c0 .82.664 1.485 1.484 1.485h13.063c.82 0 1.484-.664 1.484-1.484V7.034c0-.82-.664-1.485-1.485-1.485zm.148 9.945a.149.149 0 01-.148.148H3.5a.149.149 0 01-.148-.148V7.034c0-.082.066-.149.148-.149h3.464l.317-.887.425-1.19h4.648l.425 1.19.318.887h3.466c.081 0 .148.067.148.149v8.46zm-6.68-7.422a2.968 2.968 0 100 5.937 2.968 2.968 0 100-5.937zm0 4.75a1.782 1.782 0 11.001-3.564 1.782 1.782 0 010 3.564z" fill="#664DFF"/></svg>