<svg width="16" height="16" fill="none" xmlns="http://www.w3.org/2000/svg"><mask id="a" fill="#fff"><path fill-rule="evenodd" clip-rule="evenodd" d="M6.173 7.668L.672 2.167A1.111 1.111 0 112.243.596l5.5 5.499 5.498-5.5a1.111 1.111 0 011.572 1.572L9.31 7.668l5.502 5.501a1.111 1.111 0 01-1.572 1.571L7.742 9.241l-5.499 5.5a1.11 1.11 0 11-1.571-1.572l5.501-5.5z"/></mask><path fill-rule="evenodd" clip-rule="evenodd" d="M6.173 7.668L.672 2.167A1.111 1.111 0 112.243.596l5.5 5.499 5.498-5.5a1.111 1.111 0 011.572 1.572L9.31 7.668l5.502 5.501a1.111 1.111 0 01-1.572 1.571L7.742 9.241l-5.499 5.5a1.11 1.11 0 11-1.571-1.572l5.501-5.5z" fill="#664DFF"/><path d="M6.173 7.668l.07.07.071-.07-.07-.07-.071.07zM.672 2.167l.07-.07-.07.07zM.346 1.38h.1-.1zM1.457.271v-.1.1zm.786.325l.07-.071-.07.07zm5.5 5.499l-.072.07.071.071.07-.07-.07-.071zm5.498-5.5l.071.071-.07-.07zm.786-.325v-.1.1zm1.11 1.111h-.1.1zm-.325.786l.071.07-.07-.07zm-5.5 5.501l-.071-.07-.071.07.07.07.071-.07zm5.5 5.501l-.07.071.07-.07zm.326.786h-.1.1zm-1.111 1.11v-.1.1zm-.786-.325l-.07.071.07-.07zM7.742 9.241l.07-.07-.07-.071-.07.07.07.071zm-5.499 5.5l-.07-.071.07.07zm-.786.325v-.1.1zm-1.11-1.111h.1-.1zm.325-.786l-.07-.07.07.07zm5.572-5.572l-5.501-5.5-.142.14L6.102 7.74l.142-.142zm-5.501-5.5a1.011 1.011 0 01-.297-.716h-.2c0 .321.128.63.355.857l.142-.142zM.446 1.38c0-.268.107-.525.297-.715L.6.525a1.211 1.211 0 00-.355.856h.2zM.743.666c.19-.19.446-.296.714-.296v-.2c-.32 0-.629.128-.856.355l.142.141zM1.457.37c.269 0 .526.107.715.296l.142-.141A1.211 1.211 0 001.457.17v.2zm.715.296l5.5 5.5.14-.142L2.315.525l-.142.141zm5.64 5.5l5.5-5.5-.141-.141-5.5 5.5.142.14zm5.5-5.5c.19-.19.447-.296.715-.296v-.2c-.321 0-.63.128-.856.355l.141.141zm.715-.296c.268 0 .525.107.715.296l.141-.141a1.21 1.21 0 00-.856-.355v.2zm.715.296c.19.19.296.447.296.715h.2c0-.32-.128-.629-.355-.856l-.141.141zm.296.715c0 .268-.107.526-.296.715l.141.142c.227-.227.355-.536.355-.857h-.2zm-.296.715L9.24 7.597l.141.142 5.501-5.501-.141-.142zM9.24 7.74l5.5 5.501.142-.142-5.5-5.5-.142.14zm5.5 5.501c.19.19.297.447.297.715h.2c0-.321-.128-.63-.355-.857l-.141.142zm.297.715c0 .268-.107.525-.296.715l.141.141c.227-.227.355-.535.355-.856h-.2zm-.296.715a1.01 1.01 0 01-.715.296v.2c.321 0 .63-.128.856-.355l-.141-.141zm-.715.296a1.01 1.01 0 01-.715-.296l-.141.141c.227.227.535.355.856.355v-.2zm-.715-.296l-5.5-5.5-.14.142 5.499 5.5.141-.142zm-5.64-5.5l-5.5 5.5.142.141 5.499-5.499-.142-.141zm-5.5 5.5c-.19.19-.446.296-.715.296v.2c.322 0 .63-.128.857-.355l-.142-.141zm-.715.296c-.268 0-.525-.107-.714-.296L.6 14.81c.227.227.535.355.856.355v-.2zm-.714-.296a1.01 1.01 0 01-.297-.715h-.2c0 .321.128.629.355.856l.142-.141zm-.297-.715c0-.268.107-.525.297-.715L.6 13.098a1.211 1.211 0 00-.355.857h.2zm.297-.715l5.5-5.501-.14-.142L.6 13.098l.142.142z" fill="#fff" mask="url(#a)"/></svg>