<svg width="18" height="16" fill="none" xmlns="http://www.w3.org/2000/svg"><mask id="a" fill="#fff"><path fill-rule="evenodd" clip-rule="evenodd" d="M9.772.389a1.075 1.075 0 00-.583 1.406c.055.13.134.25.234.349l4.612 4.61H1.586a1.075 1.075 0 100 2.15H14.04l-4.617 4.614a1.076 1.076 0 001.522 1.522l6.448-6.448a1.073 1.073 0 000-1.522L10.945.622A1.074 1.074 0 009.772.39z"/></mask><path fill-rule="evenodd" clip-rule="evenodd" d="M9.772.389a1.075 1.075 0 00-.583 1.406c.055.13.134.25.234.349l4.612 4.61H1.586a1.075 1.075 0 100 2.15H14.04l-4.617 4.614a1.076 1.076 0 001.522 1.522l6.448-6.448a1.073 1.073 0 000-1.522L10.945.622A1.074 1.074 0 009.772.39z" fill="#8F949C"/><path d="M9.423.622l.283.284V.905L9.423.622zm.35-.233l-.154-.37.153.37zM9.188.97L8.82.818l.37.153zm.234 1.173l.283-.283-.283.283zm4.612 4.61v.4H15l-.683-.683-.283.283zM.826 7.069l-.282-.283.282.283zm0 1.52l-.282.282.282-.283zm13.214.314l.282.283.684-.683h-.966v.4zm-4.617 4.615l-.283-.283.283.283zm0 1.522l-.283.282.283-.282zm1.522 0l.283.282-.283-.282zm6.448-6.448l-.283-.283.283.283zm.233-.35l-.37-.152.37.153zm-.233-1.172l-.283.283.283-.283zM10.945.622l-.283.283.283-.283zm-.35-.233l.154-.37-.153.37zm-.889.516a.675.675 0 01.22-.147L9.618.02c-.18.075-.342.184-.48.32l.567.566zm-.147.22a.674.674 0 01.147-.22L9.14.34c-.138.137-.247.3-.321.479l.739.307zm-.052.258c0-.089.018-.176.052-.258L8.82.818c-.074.18-.113.371-.113.565h.8zm.052.259a.675.675 0 01-.052-.259h-.8c0 .194.039.386.113.565l.739-.306zm.147.219a.675.675 0 01-.147-.22l-.739.307c.074.18.183.342.32.48l.566-.567zm4.612 4.61l-4.612-4.61-.566.566 4.612 4.61.566-.566zm-12.732.683h12.449v-.8H1.586v.8zm-.477.197a.675.675 0 01.477-.197v-.8c-.39 0-.766.155-1.042.432l.565.566zm-.197.478c0-.18.07-.351.197-.478l-.565-.565a1.475 1.475 0 00-.432 1.043h.8zm.197.477a.675.675 0 01-.197-.477h-.8c0 .39.155.766.432 1.042l.565-.565zm.477.197a.675.675 0 01-.477-.197l-.565.565c.276.277.651.432 1.042.432v-.8zm12.454 0H1.586v.8H14.04v-.8zm-4.334 5.298l4.616-4.615-.565-.566-4.617 4.615.566.566zm-.198.478c0-.18.071-.351.198-.478l-.566-.566a1.476 1.476 0 00-.432 1.044h.8zm.198.478a.676.676 0 01-.198-.478h-.8c0 .391.155.767.432 1.043l.566-.565zm.478.198a.676.676 0 01-.478-.198l-.566.565c.277.277.653.433 1.044.433v-.8zm.478-.198a.676.676 0 01-.478.198v.8c.391 0 .767-.156 1.044-.433l-.566-.565zm6.448-6.448l-6.448 6.448.566.565 6.447-6.447-.565-.566zm.147-.22a.675.675 0 01-.147.22l.565.566c.137-.137.246-.3.32-.479l-.738-.306zm.051-.258a.675.675 0 01-.051.259l.739.306c.074-.179.112-.371.112-.565h-.8zm-.051-.259c.034.082.051.17.051.259h.8c0-.194-.038-.386-.112-.565l-.74.306zm-.147-.219a.675.675 0 01.147.22l.739-.307a1.474 1.474 0 00-.32-.48l-.566.567zM10.662.905l6.448 6.448.565-.566L11.228.34l-.566.565zm-.22-.147a.675.675 0 01.22.147l.566-.565a1.474 1.474 0 00-.479-.32l-.306.738zm-.258-.051c.089 0 .177.017.259.051l.306-.739a1.474 1.474 0 00-.565-.112v.8zm-.259.051a.675.675 0 01.259-.051v-.8c-.194 0-.386.038-.565.112l.306.74z" fill="#fff" mask="url(#a)"/></svg>