<svg fill="none" xmlns="http://www.w3.org/2000/svg" viewBox="0 0 21 22"><path d="M19.772 1.086A1.603 1.603 0 0018.504.84a1.642 1.642 0 00-.603.274c-.183.132-.338.3-.459.495l-9.438 15.3-4.602-4.476a1.673 1.673 0 00-.56-.36 1.61 1.61 0 00-.65-.109 1.65 1.65 0 00-1.17.567 1.826 1.826 0 00-.446 1.272c.017.47.211.913.539 1.232l6.043 5.876s.174.157.254.212a1.601 1.601 0 001.268.247 1.64 1.64 0 00.604-.273c.182-.132.338-.3.458-.496L20.268 3.536a1.861 1.861 0 00-.025-1.968 1.728 1.728 0 00-.471-.482z" fill="#fff"/></svg>