<svg fill="none" xmlns="http://www.w3.org/2000/svg" viewBox="0 0 16 16"><path d="M10.865 9.595L8.773 8.026V4.831a.58.58 0 10-1.162 0v3.486a.58.58 0 00.233.464l2.324 1.743a.577.577 0 00.813-.116.58.58 0 00-.116-.813z" fill="#8F949C"/><path d="M8.193.777c-4.135 0-7.5 3.365-7.5 7.5 0 4.136 3.365 7.5 7.5 7.5 4.136 0 7.5-3.364 7.5-7.5 0-4.135-3.364-7.5-7.5-7.5zm0 13.839a6.346 6.346 0 01-6.338-6.339A6.346 6.346 0 018.193 1.94a6.346 6.346 0 016.338 6.338 6.346 6.346 0 01-6.338 6.339z" fill="#8F949C"/></svg>