<svg width="26" height="26" fill="none" xmlns="http://www.w3.org/2000/svg"><path d="m17.28 15.12-3.347-2.51V7.498a.929.929 0 1 0-1.859 0v5.577c0 .293.138.57.372.744l3.718 2.788a.924.924 0 0 0 .557.186.928.928 0 0 0 .559-1.673Z" fill="#664DFF" stroke="#664DFF" stroke-width=".1"/><path d="M13 1C6.383 1 1 6.383 1 13s5.383 12 12 12 12-5.383 12-12S19.617 1 13 1Zm0 22.141c-5.591 0-10.141-4.55-10.141-10.141S7.409 2.859 13 2.859c5.592 0 10.141 4.55 10.141 10.141S18.591 23.141 13 23.141Z" fill="#664DFF" stroke="#664DFF" stroke-width=".1"/></svg>