<svg fill="none" xmlns="http://www.w3.org/2000/svg" viewBox="0 0 25 18"><path fill-rule="evenodd" clip-rule="evenodd" d="M3.045.764C1.871.764.91 1.608.91 2.657V13.19c0 1.049.962 1.893 2.136 1.893h9.614c.472 0 .854-.342.854-.764s-.382-.764-.854-.764H3.045c-.234 0-.417-.168-.417-.365V3.19l7.756 5.561.02.012c.346.197.745.302 1.155.302a2.33 2.33 0 0 0 1.233-.352l.002-.001 7.696-5.522v2.84c0 .425.385.77.86.77.474 0 .859-.345.859-.77V2.658c0-1.049-.963-1.893-2.136-1.893H3.045Zm8.332 6.738-7.262-5.21h14.888l-7.239 5.194a.517.517 0 0 1-.216.042.515.515 0 0 1-.17-.026Zm10.527-.378c-.291 0-.57.103-.777.287l-6.808 6.08-.642 2.476v.005a.884.884 0 0 0 .003.433c.037.143.11.276.212.39.102.115.232.207.379.271.141.061.295.095.452.098.068.005.137.005.205-.002l.027-.002 2.825-.58 6.797-6.073h.001a.936.936 0 0 0 .321-.696c0-.26-.115-.51-.32-.695l-1.896-1.704-.002-.001a1.172 1.172 0 0 0-.777-.287Zm.79 3.137-1.319-1.18.506-.45 1.301 1.184-.487.446Zm-7.388 5.413.39-1.5 4.632-4.127 1.323 1.184-4.627 4.12-1.718.323Z" fill="#664DFF"/></svg>