<svg width="15" height="14" fill="none" xmlns="http://www.w3.org/2000/svg"><path d="M11.479 12.664h.05V8.12l1.218 1.218v3.274c0 .698-.57 1.269-1.268 1.269H2.252c-.698 0-1.268-.571-1.268-1.268V3.386c0-.697.57-1.268 1.268-1.268h3.55c-.152.38-.253.788-.288 1.218H2.202V12.664H11.479zm-3.323-4.39l2.234 2.971H3.343L5.054 9.05l1.252 1.507.04.048.038-.05 1.772-2.28zm4.137-3.01l-.02.034.027.028 2.021 2.015-.865.865-2.02-2.021-.03-.028-.033.021a2.872 2.872 0 01-1.548.454 2.91 2.91 0 01-2.91-2.916A2.912 2.912 0 019.831.8a2.912 2.912 0 012.916 2.916 2.89 2.89 0 01-.454 1.548zm-3.662-.348a1.698 1.698 0 102.4-2.4 1.698 1.698 0 00-2.4 2.4z" fill="#8F949C" stroke="#fff" stroke-width=".1"/></svg>