<svg width="13" height="13" viewBox="0 0 13 13" fill="none" xmlns="http://www.w3.org/2000/svg">
<path d="M1.5385 12.4019H1.60566L4.71772 12.1183C5.05863 12.0844 5.37747 11.9342 5.62074 11.6929L12.3374 4.97626C12.5981 4.70086 12.739 4.33333 12.7292 3.95424C12.7194 3.57514 12.5597 3.21538 12.2852 2.9538L10.2403 0.908945C9.97344 0.658261 9.62372 0.514422 9.25769 0.504789C8.89166 0.495157 8.53487 0.620404 8.25517 0.856704L1.5385 7.57338C1.29727 7.81664 1.14707 8.13549 1.11311 8.4764L0.792199 11.5885C0.782146 11.6978 0.796329 11.8079 0.833739 11.9111C0.871148 12.0143 0.930863 12.108 1.00863 12.1855C1.07836 12.2547 1.16106 12.3094 1.25199 12.3465C1.34291 12.3837 1.44028 12.4025 1.5385 12.4019ZM9.20297 1.95376L11.2404 3.99115L9.74776 5.44643L7.74769 3.44635L9.20297 1.95376ZM2.56092 8.60327L6.76257 4.43147L8.77758 6.44647L4.59831 10.6257L2.35942 10.8347L2.56092 8.60327Z" fill="#292739" stroke="#F4F2FF" stroke-width="0.5"/>
</svg>
