<svg width="42" height="42" viewBox="0 0 42 42" fill="none" xmlns="http://www.w3.org/2000/svg">
<circle cx="20.7394" cy="21.2474" r="20.4459" transform="rotate(-0.314449 20.7394 21.2474)" fill="#F3F5FB"/>
<path d="M15.551 27.2254L15.6182 27.225L18.7287 26.9243C19.0694 26.8885 19.3874 26.7366 19.6293 26.494L26.309 19.7406C26.5682 19.4637 26.7071 19.0955 26.6952 18.7164C26.6833 18.3374 26.5217 17.9785 26.2457 17.7184L24.1897 15.6848C23.9214 15.4356 23.5709 15.2937 23.2048 15.2861C22.8388 15.2784 22.4827 15.4057 22.2043 15.6435L15.5245 22.3969C15.2847 22.6415 15.1362 22.9612 15.1041 23.3023L14.8003 26.416C14.7908 26.5254 14.8056 26.6355 14.8436 26.7385C14.8816 26.8415 14.9418 26.9348 15.02 27.0119C15.0901 27.0807 15.1731 27.1349 15.2642 27.1716C15.3554 27.2082 15.4528 27.2265 15.551 27.2254ZM23.1581 16.7353L25.2066 18.7615L23.722 20.2249L21.711 18.2359L23.1581 16.7353ZM16.5526 23.4212L20.7313 19.2264L22.7573 21.2303L18.6011 25.4324L16.3634 25.6537L16.5526 23.4212Z" fill="#664DFF"/>
</svg>
