<svg width="21" height="21" fill="none" xmlns="http://www.w3.org/2000/svg"><path d="M11.4.823A9.991 9.991 0 00.71 11.513c.36 5.29 4.98 9.28 10.28 9.28h3.69c.55 0 1-.45 1-1s-.45-1-1-1h-3.67c-3.73 0-7.15-2.42-8.08-6.03-1.49-5.8 3.91-11.21 9.71-9.71 3.62.92 6.04 4.34 6.04 8.07v1.1c0 .79-.71 1.57-1.5 1.57s-1.5-.78-1.5-1.57v-1.25c0-2.51-1.78-4.77-4.26-5.12a5.008 5.008 0 00-4.38 8.388 4.996 4.996 0 002.44 1.422c1.84.43 3.59-.16 4.74-1.33.89 1.22 2.67 1.86 4.3 1.21 1.34-.53 2.16-1.91 2.16-3.35v-1.08c0-5.31-3.99-9.93-9.28-10.29zm-.72 12.97c-1.66 0-3-1.34-3-3s1.34-3 3-3 3 1.34 3 3-1.34 3-3 3z" fill="#664DFF" stroke="#fff" stroke-width=".3"/></svg>