<svg fill="none" xmlns="http://www.w3.org/2000/svg" viewBox="0 0 16 16"><path fill-rule="evenodd" clip-rule="evenodd" d="M7.488 8.762a.652.652 0 0 1-.238-.509V4.71c0-.175.068-.342.19-.466a.646.646 0 0 1 .92 0c.122.124.19.291.19.466v3.544a.662.662 0 0 1-.19.466.646.646 0 0 1-.872.043ZM5.192 1.905c-.722.33-1.388.79-1.959 1.369a6.689 6.689 0 0 0-1.43 2.168 6.756 6.756 0 0 0-.495 2.89 6.723 6.723 0 0 0 2.41 4.838 6.55 6.55 0 0 0 4.51 1.505 6.562 6.562 0 0 0 4.339-1.949A6.727 6.727 0 0 0 14.5 8a6.727 6.727 0 0 0-1.933-4.726A6.558 6.558 0 0 0 7.9 1.316a6.53 6.53 0 0 0-2.708.589ZM.082 9.152a8.052 8.052 0 0 1 2.232-6.809A7.85 7.85 0 0 1 7.9 0c.524 0 1.042.053 1.548.155a7.87 7.87 0 0 1 4.563 2.775 8.062 8.062 0 0 1 1.78 5.467 8.047 8.047 0 0 1-2.305 5.26A7.85 7.85 0 0 1 7.9 16a7.85 7.85 0 0 1-5.586-2.343A8.038 8.038 0 0 1 .082 9.152ZM8.8 11.083a.917.917 0 0 1-.329.66.893.893 0 0 1-1.206-.06.917.917 0 0 1 0-1.29.894.894 0 0 1 1.332.067.919.919 0 0 1 .203.623Z" fill="#F06"/></svg>