<svg width="26" height="20" fill="none" xmlns="http://www.w3.org/2000/svg"><path d="M18.29 12.093a5.267 5.267 0 00.333-1.865A5.33 5.33 0 0013.294 4.9c-.629 0-1.252.114-1.841.334l1.25 1.29a3.783 3.783 0 014.366 3.706c0 .192-.016.384-.046.574l1.266 1.29z" fill="#664DFF"/><path d="M25.36 9.863c-2.618-4.84-7.21-7.769-12.29-7.769a13.066 13.066 0 00-4.07.66l1.25 1.26c.921-.239 1.869-.361 2.82-.366 4.374 0 8.351 2.44 10.72 6.55a13.788 13.788 0 01-3.394 3.961l1.103 1.103a15.483 15.483 0 003.884-4.661l.202-.373-.225-.365zM3.64 1.835L5.967 4.2A15.164 15.164 0 00.771 9.863l-.202.365.202.373c2.618 4.84 7.21 7.769 12.29 7.769 1.983 0 3.94-.45 5.726-1.313l2.138 2.16 1.36-1.165L4.968.678 3.639 1.835zm6.438 6.474l5.166 5.166a3.736 3.736 0 01-1.942.56 3.783 3.783 0 01-3.783-3.807 3.737 3.737 0 01.559-1.919zM8.952 7.183a5.321 5.321 0 007.419 7.419l1.242 1.243a11.583 11.583 0 01-4.552.932c-4.374 0-8.351-2.44-10.72-6.549a13.432 13.432 0 014.754-4.894l1.857 1.849z" fill="#664DFF"/></svg>