<svg width="18" height="12" fill="none" xmlns="http://www.w3.org/2000/svg"><path d="M17.027 5.767a9.444 9.444 0 00-3.314-3.452A8.994 8.994 0 009.034 1a8.994 8.994 0 00-4.679 1.315 9.445 9.445 0 00-3.313 3.452.329.329 0 000 .32 9.445 9.445 0 003.313 3.452 8.994 8.994 0 004.68 1.315 8.994 8.994 0 004.678-1.315 9.444 9.444 0 003.314-3.452.328.328 0 000-.32zm-7.993 4.448c-3.004 0-5.81-1.638-7.366-4.288 1.557-2.65 4.362-4.288 7.366-4.288 3.004 0 5.81 1.638 7.366 4.288-1.556 2.65-4.362 4.288-7.366 4.288z" fill="#8F949C" stroke="#8F949C" stroke-width=".6"/><path d="M9.033 3C7.472 3 6.201 4.313 6.201 5.927c0 1.613 1.27 2.926 2.832 2.926 1.562 0 2.833-1.313 2.833-2.926C11.866 4.313 10.596 3 9.033 3zm0 5.366c-1.301 0-2.36-1.094-2.36-2.44 0-1.344 1.059-2.438 2.36-2.438 1.302 0 2.36 1.094 2.36 2.439s-1.058 2.439-2.36 2.439z" fill="#8F949C" stroke="#8F949C" stroke-width=".6"/></svg>