<svg width="81" height="81" fill="none" xmlns="http://www.w3.org/2000/svg"><g filter="url(#filter0_d)"><rect x="15.932" y="15.27" width="50" height="50" rx="25" fill="#C0ABFE"/></g><path d="M45.159 45.183c-.478-.498-1.055-.764-1.667-.764-.606 0-1.188.261-1.686.759l-1.558 1.553c-.128-.069-.256-.133-.38-.197a6.267 6.267 0 01-.488-.261c-1.46-.927-2.786-2.135-4.058-3.698-.616-.78-1.03-1.435-1.33-2.1.403-.37.778-.755 1.143-1.125.138-.138.276-.281.414-.42 1.036-1.035 1.036-2.376 0-3.411l-1.346-1.346c-.153-.153-.31-.31-.459-.469a23.221 23.221 0 00-.926-.917c-.479-.473-1.05-.724-1.652-.724-.602 0-1.183.251-1.677.724l-.01.01-1.676 1.691a3.607 3.607 0 00-1.07 2.293c-.118 1.44.306 2.781.631 3.659.8 2.154 1.992 4.151 3.772 6.291 2.16 2.579 4.758 4.615 7.726 6.05 1.135.538 2.648 1.174 4.34 1.282.103.005.212.01.31.01 1.14 0 2.096-.41 2.845-1.223.005-.01.015-.015.02-.025.256-.31.552-.591.863-.892.212-.202.429-.414.64-.636.489-.508.745-1.1.745-1.706 0-.611-.261-1.198-.76-1.691l-2.706-2.717zm1.765 5.192c-.005 0-.005.005 0 0-.192.207-.39.394-.601.601-.32.306-.646.627-.952.987-.498.532-1.085.783-1.854.783-.074 0-.153 0-.227-.004-1.464-.094-2.825-.666-3.846-1.154-2.79-1.351-5.24-3.27-7.277-5.7-1.682-2.026-2.806-3.9-3.55-5.912-.459-1.228-.627-2.184-.553-3.086.05-.577.272-1.056.68-1.465l1.682-1.681c.242-.227.498-.35.75-.35.31 0 .562.187.72.345l.014.015c.301.28.587.572.888.882l.468.479 1.346 1.346c.523.522.523 1.006 0 1.528-.143.143-.28.286-.424.424-.414.424-.808.819-1.237 1.203-.01.01-.02.015-.025.025-.424.424-.345.838-.256 1.12l.014.043c.35.849.844 1.647 1.593 2.599l.005.005c1.36 1.676 2.796 2.983 4.378 3.984.203.128.41.232.607.33.177.089.345.173.488.261.02.01.04.025.06.035.167.084.325.123.487.123.41 0 .666-.256.75-.34l1.686-1.686c.168-.168.434-.37.745-.37.305 0 .557.192.71.36l.01.01 2.716 2.717c.508.502.508 1.02.005 1.543z" fill="#fff" stroke="#C0ABFE" stroke-width=".1"/><path d="M47.638 26.469c-4.143 0-7.512 3.37-7.512 7.512 0 .362.026.726.079 1.086l-1.246 4.045a.71.71 0 00.63.903l3.86.202a7.458 7.458 0 004.189 1.275c4.142 0 7.511-3.37 7.511-7.511 0-4.143-3.37-7.512-7.511-7.512zm0 13.627a6.073 6.073 0 01-3.548-1.134.697.697 0 00-.369-.129l-3.164-.166 1.03-3.343c.12-.393-.065-.935-.065-1.343a6.122 6.122 0 016.116-6.116 6.122 6.122 0 016.115 6.116 6.122 6.122 0 01-6.115 6.115z" fill="#fff" stroke="#C0ABFE" stroke-width=".1"/><path d="M45.103 33.48a.706.706 0 00-.699.699c0 .38.32.698.699.698.368 0 .68-.3.696-.668a.705.705 0 00-.696-.729zM47.849 33.48a.705.705 0 00-.699.699c0 .38.319.698.699.698.368 0 .68-.3.696-.668a.704.704 0 00-.697-.729zM50.595 33.48a.706.706 0 00-.698.699c0 .38.319.698.698.698.368 0 .68-.3.696-.668a.704.704 0 00-.696-.729z" fill="#fff" stroke="#C0ABFE" stroke-width=".1"/><defs><filter id="filter0_d" x=".932" y=".27" width="80" height="80" filterUnits="userSpaceOnUse" color-interpolation-filters="sRGB"><feFlood flood-opacity="0" result="BackgroundImageFix"/><feColorMatrix in="SourceAlpha" values="0 0 0 0 0 0 0 0 0 0 0 0 0 0 0 0 0 0 127 0"/><feOffset/><feGaussianBlur stdDeviation="7.5"/><feColorMatrix values="0 0 0 0 0.347188 0 0 0 0 0.446083 0 0 0 0 0.841667 0 0 0 0.15 0"/><feBlend in2="BackgroundImageFix" result="effect1_dropShadow"/><feBlend in="SourceGraphic" in2="effect1_dropShadow" result="shape"/></filter></defs></svg>