<svg fill="none" xmlns="http://www.w3.org/2000/svg" viewBox="0 0 71 70"><path fill-rule="evenodd" clip-rule="evenodd" d="M35.086 14.011000000000001l.001.006-.001-.006zm-4.234 4.156l.64.767.053-.044.047-.05c.382-.42.455-.988.47-1.378.015-.443-.042-.951-.14-1.48-.196-1.066-.59-2.368-1.102-3.708-1.015-2.656-2.578-5.669-4.22-7.424-1.09-1.165-2.558-1.823-4.124-1.823-1.57 0-3.037.657-4.128 1.823h-.001c-2.238 2.396-2.238 6.272 0 8.667 1.076 1.152 3.15 2.586 5.298 3.722 1.088.575 2.225 1.09 3.305 1.463 1.066.37 2.137.622 3.072.622.401 0 .71-.049.95-.123a1.774 1.774 0 00.428-.197l.05-.035.007-.006.015-.012.01-.008.006-.004.002-.002.002-.002-.64-.768zm21.36-.652l-2.493 1.81h17.267c1.862 0 3.484 1.633 3.484 3.765v11.914c0 .821-.614 1.383-1.242 1.383h-3.242V65.98c0 2.132-1.622 3.765-3.484 3.765H8.698c-1.862 0-3.484-1.633-3.484-3.765V36.386H1.972c-.628 0-1.242-.561-1.242-1.382V23.09c0-2.132 1.623-3.766 3.484-3.766h17.267l-2.493-1.81c-.991-.718-1.81-1.41-2.363-2.003-3.25-3.48-3.25-9.174.004-12.654 3.116-3.333 8.57-3.337 11.69 0 .875.934 2.597 3.463 4.014 6.48 1.427 3.04 2.43 6.34 2.113 8.863l-.14 1.124h2.59l-.142-1.125c-.32-2.523.684-5.822 2.112-8.862 1.417-3.017 3.14-5.546 4.015-6.48 3.12-3.337 8.574-3.333 11.69 0 3.254 3.48 3.254 9.174 0 12.654l-.003.003c-.548.59-1.364 1.281-2.356 2zM7.698 66.98h26.66V36.386H7.698V66.98zM3.214 33.62h31.144V22.09H3.214v11.53zM44.6 4.85c-1.642 1.756-3.205 4.768-4.22 7.424-.513 1.34-.907 2.642-1.104 3.707-.098.529-.155 1.037-.14 1.48.013.39.086.957.467 1.377l.006.007.006.007a1.002 1.002 0 00.178.15c.04.027.08.052.125.076.09.047.194.09.314.126.24.073.548.12.946.12.935 0 2.007-.253 3.072-.622 1.08-.373 2.218-.888 3.305-1.463 2.148-1.136 4.222-2.57 5.298-3.722 2.238-2.396 2.238-6.27 0-8.666l-.001-.002c-2.21-2.355-6.035-2.361-8.252 0zm-7.758 62.13h26.66V36.386h-26.66V66.98zm0-33.36h31.144V22.09H36.842v11.53z" fill="#292739"/></svg>