<svg width="23" height="18" viewBox="0 0 23 18" fill="none" xmlns="http://www.w3.org/2000/svg">
<path d="M5.45508 8.77051V15.0116C5.45508 15.6837 6.22321 16.2598 6.60728 16.2598L15.9209 16.1638C16.401 16.1638 17.0731 15.5877 17.0731 15.0116V8.86652" stroke="#664DFF" stroke-width="1.5" stroke-linecap="round" stroke-linejoin="round"/>
<path d="M2.57422 11.0757V7.33105" stroke="#664DFF" stroke-width="1.5" stroke-linecap="round" stroke-linejoin="round"/>
<path d="M2.57603 13.3786C3.21237 13.3786 3.72823 12.8628 3.72823 12.2264C3.72823 11.5901 3.21237 11.0742 2.57603 11.0742C1.93969 11.0742 1.42383 11.5901 1.42383 12.2264C1.42383 12.8628 1.93969 13.3786 2.57603 13.3786Z" stroke="#664DFF" stroke-width="1.5" stroke-linecap="round" stroke-linejoin="round"/>
<path d="M1.71289 6.56055L11.2185 11.3614L21.3003 6.56055" stroke="#664DFF" stroke-width="1.5" stroke-linecap="round" stroke-linejoin="round"/>
<path d="M21.2984 6.46588L11.3126 1.66504L1.71094 6.46588" stroke="#664DFF" stroke-width="1.5" stroke-linecap="round" stroke-linejoin="round"/>
</svg>
