<svg width="21" height="22" fill="none" xmlns="http://www.w3.org/2000/svg"><path d="M10.397 18.267l.104.101.105-.101c2.406-2.336 4.219-4.128 5.474-5.77 1.3-1.702 1.69-2.853 1.69-3.835 0-1.513-1.096-2.868-2.801-2.868-.967 0-1.906.496-2.488 1.22l-1.98 2.468-1.98-2.467c-.58-.725-1.52-1.221-2.487-1.221-1.705 0-2.8 1.355-2.8 2.868 0 .982.39 2.133 1.69 3.834 1.254 1.643 3.067 3.434 5.473 5.77zm7.586-3.932c-1.474 1.93-3.585 3.98-6.143 6.46a2.077 2.077 0 01-2.677 0c-2.558-2.48-4.669-4.53-6.143-6.46C1.547 12.408.724 10.618.724 8.662c0-3.208 2.345-5.69 5.31-5.69 1.09 0 2.155.352 3.057.961a5.883 5.883 0 011.293 1.191l.117.146.117-.146a5.865 5.865 0 011.294-1.19c.902-.61 1.967-.963 3.057-.963 2.965 0 5.31 2.483 5.31 5.691 0 1.956-.823 3.746-2.296 5.673z" fill="#664DFF" stroke="#fff" stroke-width=".3"/></svg>