<svg width="18" height="17" fill="none" xmlns="http://www.w3.org/2000/svg"><path d="M5.658 8.97l-3.39-3.391C.931 7.034.425 8.492.417 8.522L.323 8.8l.092.277c.02.059 2.035 5.871 8.74 5.871.815 0 1.558-.09 2.24-.24l-2.411-2.412A3.501 3.501 0 015.658 8.97zm3.497-6.319c-1.63 0-2.964.355-4.077.877L2.445.894a.878.878 0 00-1.242 1.242L15.77 16.705a.878.878 0 101.242-1.242l-2.276-2.276c2.317-1.715 3.144-4.073 3.156-4.11l.092-.277-.092-.278c-.02-.059-2.033-5.87-8.738-5.87zM10.83 9.28c.165-.594.025-1.264-.432-1.721C9.94 7.1 9.27 6.96 8.676 7.125L7.35 5.801a3.474 3.474 0 011.804-.515A3.517 3.517 0 0112.67 8.8a3.46 3.46 0 01-.516 1.803l-1.324-1.324z" fill="#FF3687"/></svg>