<svg width="17" height="17" fill="none" xmlns="http://www.w3.org/2000/svg"><path d="M9.263 4.067a.722.722 0 00-.279-.13 1.545 1.545 0 00-.68 0 .699.699 0 00-.282.13.625.625 0 00-.188.243.934.934 0 00-.068.378c0 .148.023.272.068.376.046.1.109.184.188.245.08.06.173.106.282.132a1.434 1.434 0 00.68 0c.107-.026.2-.071.28-.132a.651.651 0 00.19-.245.895.895 0 00.07-.376.884.884 0 00-.07-.378.643.643 0 00-.19-.243zM7.903 6.951H9.52v5.912H7.903V6.951z" fill="#8345F8"/><path d="M8.712.912C4.342.912.789 4.462.789 8.825s3.553 7.913 7.921 7.913c4.369 0 7.923-3.549 7.923-7.913C16.634 4.461 13.08.912 8.712.912zm0 14.684c-3.738 0-6.778-3.038-6.778-6.77 0-3.734 3.04-6.771 6.778-6.771 3.737 0 6.779 3.037 6.779 6.771-.002 3.732-3.043 6.77-6.78 6.77z" fill="#8345F8"/></svg>