<svg fill="none" xmlns="http://www.w3.org/2000/svg" viewBox="0 0 14 18"><path fill-rule="evenodd" clip-rule="evenodd" d="m6.432 17.537.276-.391-.276.391Zm.552 0h.002l.005-.004.014-.011.057-.04c.048-.036.118-.088.206-.156a20.798 20.798 0 0 0 2.917-2.765c1.585-1.833 3.232-4.45 3.232-7.441a6.764 6.764 0 0 0-1.964-4.768A6.69 6.69 0 0 0 4.139.889a6.69 6.69 0 0 0-2.175 1.463A6.764 6.764 0 0 0 0 7.12c0 2.991 1.646 5.608 3.231 7.441a20.793 20.793 0 0 0 2.918 2.765c.086.067.174.132.262.197l.015.01.004.003.002.001a.48.48 0 0 0 .552 0Zm-.276-.391.276.391-.276-.391ZM9.104 7.083a2.396 2.396 0 1 1-4.791 0 2.396 2.396 0 0 1 4.791 0Z" fill="#6585FF"/></svg>