<svg width="26" height="42" fill="none" xmlns="http://www.w3.org/2000/svg"><path d="M12.84.787C5.78.787.058 6.43.058 13.423c0 12.089 12.782 27.855 12.782 27.855s12.783-15.769 12.783-27.855C25.623 6.433 19.9.787 12.84.787zm0 19.627c-1.83 0-3.586-.72-4.88-2.002a6.805 6.805 0 01-2.022-4.835c0-1.813.727-3.552 2.021-4.834A6.936 6.936 0 0112.84 6.74c1.83 0 3.587.72 4.881 2.003a6.804 6.804 0 012.022 4.834 6.805 6.805 0 01-2.022 4.835 6.936 6.936 0 01-4.88 2.002z" fill="url(#paint0_linear)"/><defs><linearGradient id="paint0_linear" x1="12.84" y1=".787" x2="12.84" y2="41.278" gradientUnits="userSpaceOnUse"><stop stop-color="#03F"/><stop offset=".88" stop-color="#93F"/><stop offset="1" stop-color="#D046FF"/></linearGradient></defs></svg>