<svg width="24" height="25" fill="none" xmlns="http://www.w3.org/2000/svg"><path fill-rule="evenodd" clip-rule="evenodd" d="M2.979 3.48c.64-.64 1.509-1 2.415-1h13.212a3.415 3.415 0 0 1 3.415 3.415v9.91l-2.616-3.249a2.95 2.95 0 0 0-.976-.793c-.381-.19-.799-.291-1.226-.29a2.725 2.725 0 0 0-1.223.295c-.38.192-.71.466-.974.798l-4.63 5.802-8.397-6.57V5.896c0-.906.36-1.775 1-2.415Zm6.162 16.434L1.98 14.311v4.796a3.415 3.415 0 0 0 3.415 3.415H7.06l2.081-2.608Zm12.873-.584a3.415 3.415 0 0 1-3.3 3.19H9.593l6.96-8.72a.977.977 0 0 1 .319-.265.745.745 0 0 1 .336-.083c.11 0 .225.025.336.081a.972.972 0 0 1 .32.264l3.895 4.838.02.026c.071.088.117.145.157.199.039.053.054.08.06.093a.093.093 0 0 1 .01.026c.003.015.009.053.009.127v.146l-.001.078Zm-3.272 5.17-.136.001H5.394A5.394 5.394 0 0 1 0 19.107V5.895A5.394 5.394 0 0 1 5.394.5h13.212A5.394 5.394 0 0 1 24 5.895v13.212c0 .103-.003.205-.009.307-.036 1.296-.503 2.55-1.338 3.502-.874.995-2.088 1.583-3.387 1.583h-.524ZM7.644 8.593a1.53 1.53 0 1 1 3.061 0 1.53 1.53 0 0 1-3.061 0Zm1.53-3.51a3.51 3.51 0 1 0 0 7.02 3.51 3.51 0 0 0 0-7.02Z" fill="#664DFF"/></svg>