<svg fill="none" xmlns="http://www.w3.org/2000/svg" viewBox="0 0 16 17"><path fill-rule="evenodd" clip-rule="evenodd" d="M9.4 2.317c.264 0 .478-.21.478-.469V.844A.473.473 0 0 0 9.4.374a.473.473 0 0 0-.478.47v1.004c0 .259.214.469.478.469Zm4.431.364-1.023 1.005a.484.484 0 0 1-.676 0 .463.463 0 0 1 0-.663l1.024-1.005a.484.484 0 0 1 .675 0 .463.463 0 0 1 0 .663Zm.174 3.218h1.024c.264 0 .478.21.478.469a.473.473 0 0 1-.478.468h-1.024a.473.473 0 0 1-.477-.468c0-.26.213-.47.477-.47ZM.875 12.725a.463.463 0 0 1 0-.663l.8-.786 2.723 2.672-.8.785a.484.484 0 0 1-.676 0L.875 12.725Zm8.271-.285-3.354 1.55 2.293 2.25a.484.484 0 0 0 .675 0l1.791-1.758a.463.463 0 0 0 0-.663L9.146 12.44ZM6.76 1.888a.484.484 0 0 1 .42.13l6.652 6.528a.463.463 0 0 1-.134.756l-8.624 3.982-2.722-2.671L6.41 2.15a.477.477 0 0 1 .35-.262Z" fill="#fff"/></svg>