<svg width="21" height="19" fill="none" xmlns="http://www.w3.org/2000/svg"><path d="M10.556.953C5.033.953.557 4.59.557 9.077c0 1.86.778 3.562 2.066 4.933-.582 1.539-1.792 2.843-1.812 2.859a.937.937 0 00.684 1.582c2.402 0 4.296-1.004 5.433-1.809 1.128.356 2.347.559 3.628.559 5.523 0 9.999-3.636 9.999-8.124S16.079.953 10.556.953zm0 14.373c-1.043 0-2.074-.16-3.062-.472l-.887-.281-.761.538A8.397 8.397 0 013.6 16.244a9.798 9.798 0 00.777-1.57l.414-1.098-.804-.851c-.707-.754-1.555-2-1.555-3.648 0-3.445 3.644-6.25 8.124-6.25s8.124 2.805 8.124 6.25-3.644 6.25-8.124 6.25z" fill="#664DFF"/></svg>