<svg width="23" height="26" fill="none" xmlns="http://www.w3.org/2000/svg"><path d="M17.492 3.234v.25h3.918a.972.972 0 01.973.973v17.115a3.418 3.418 0 01-3.418 3.418H4.295a3.418 3.418 0 01-3.418-3.418V4.457a.973.973 0 01.972-.973h3.918V2.012a.972.972 0 111.945 0v1.472h2.945V2.012a.973.973 0 011.945 0v1.472h2.945V2.012a.973.973 0 011.945 0v1.222zM3.072 5.43h-.25v16.143a1.473 1.473 0 001.473 1.473h14.67a1.472 1.472 0 001.472-1.473V5.43h-2.945v1.473a.973.973 0 01-1.945 0V5.429h-2.945v1.473a.972.972 0 11-1.945 0V5.429H7.712v1.473a.972.972 0 11-1.945 0V5.429H3.072zm2.98 10.565a.973.973 0 01.688-.285h9.78a.972.972 0 010 1.945H6.74a.973.973 0 01-.688-1.66zm2.445-4.89a.973.973 0 01.688-.285h7.335a.973.973 0 010 1.945H9.185a.973.973 0 01-.688-1.66z" fill="#8F949C" stroke="#fff" stroke-width=".5"/></svg>