<svg width="40" height="41" fill="none" xmlns="http://www.w3.org/2000/svg"><rect y=".715" width="40" height="40" rx="20" fill="#ACB3C9"/><path d="M23.174 17.363a14.062 14.062 0 00-1.984-1.747c-.688-.495-1.332-.867-1.933-1.114-.6-.248-1.152-.367-1.652-.357-.501.01-.892.166-1.172.467a1.028 1.028 0 00-.17.226c-.047.084-.08.149-.1.196a2.27 2.27 0 00-.08.25 2.93 2.93 0 01-.071.231l-3.726 12.288.23.241c-.26.181-.492.392-.696.633a9.912 9.912 0 01-.536.592 1.24 1.24 0 01-.55.321.445.445 0 00-.176.136c-.07.077-.105.146-.105.206 0 .12.06.22.18.3.12.081.254.121.401.121.187 0 .367-.075.54-.226a3.77 3.77 0 00.527-.577c.177-.234.305-.388.385-.462.174-.154.368-.3.581-.441l.26.25 11.84-4.025c.26-.08.46-.2.6-.361.281-.302.426-.718.436-1.25.01-.532-.101-1.118-.335-1.757-.234-.64-.583-1.322-1.047-2.048a14.029 14.029 0 00-1.648-2.093zm-1.082 1.094c1.021 1.044 1.798 2.043 2.329 2.997.53.953.659 1.58.385 1.882-.274.301-.871.19-1.793-.331-.921-.522-1.89-1.302-2.904-2.34-1.029-1.043-1.808-2.04-2.34-2.991-.53-.95-.659-1.58-.385-1.887.274-.302.873-.191 1.798.33.925.523 1.895 1.303 2.91 2.34zm-2.194 4.156c.488.435.972.817 1.453 1.145l.5.943-.841.291c-.4-.756-.771-1.549-1.112-2.379zm-3.415-4.598c.147.328.35.726.61 1.195.214.964.55 2.008 1.007 3.132a30.1 30.1 0 001.498 3.162l-.832.281a28.058 28.058 0 01-1.642-3.659c-.468-1.275-.755-2.4-.862-3.378l.22-.733zM15.32 21.69c.467 1.499 1.125 3.038 1.973 4.618l-.821.29c-.661-1.27-1.182-2.466-1.563-3.583l.41-1.325zm-1.152 3.664c.26.616.538 1.201.831 1.757l-.82.29a23.38 23.38 0 01-.402-.832l.391-1.215zm7.362-14.276l.5 1.516-1.291.944h1.592l.49 1.516.492-1.516h1.582l-1.282-.944.501-1.506-1.292.934-1.292-.944zm-2.805 0l-.27 1.376 1.372.27.27-1.375-1.372-.27zm9.025 4.136l1.102-1.154 1.432.702-.741-1.405 1.111-1.134-1.572.27-.741-1.415-.22 1.586-1.573.271 1.432.693-.23 1.586zm-.37 2.47l1.331.883-.42 1.546 1.242-1.003 1.322.883-.551-1.506 1.242-.984-1.593.07-.56-1.495-.411 1.536-1.603.07zm-.572-3.725l-2.985 2.45.371.452 2.985-2.45-.37-.452zm1.042 4.739l-2.334-.21-.06.581 2.344.211.05-.582zm.23 2.81l-.43 1.346 1.332.432.44-1.335-1.342-.442z" fill="#fff"/></svg>