<svg fill="none" xmlns="http://www.w3.org/2000/svg" viewBox="0 0 51 51"><rect x=".75" y=".527" width="50" height="50" rx="25" fill="url(#paint0_linear)"/><mask id="a" maskUnits="userSpaceOnUse" x="0" y="0" width="51" height="51"><rect x=".75" y=".527" width="50" height="50" rx="25" fill="url(#paint1_linear)"/></mask><g mask="url(#a)"><path d="M-9.476 58.681a.5.5 0 00.387.922l-.386-.922zm35.959-40.16l-.458.202a.5.5 0 00.876.07l-.418-.272zm-11.9-6.47l-.316-.388.316.388zm25.632.642l.347-.36-.347.36zm-49.304 46.91C-5.522 58.107.06 54.636 6.068 50.65 12.086 46.657 18.592 42.106 24 38.44l-.561-.827c-5.428 3.68-11.908 8.212-17.924 12.203-6.024 3.997-11.526 7.412-14.99 8.865l.386.922zm35.572-41.082a40.787 40.787 0 00.456-.204v-.002l-.004-.008-.013-.027a13.958 13.958 0 00-.23-.483c-.161-.322-.398-.774-.702-1.3-.607-1.046-1.493-2.398-2.6-3.583-1.103-1.179-2.463-2.235-4.025-2.621-1.595-.395-3.328-.072-5.098 1.37l.631.775c1.553-1.264 2.968-1.486 4.227-1.175 1.292.32 2.491 1.219 3.534 2.334 1.037 1.11 1.88 2.39 2.466 3.402a22.83 22.83 0 01.844 1.601l.043.094.01.023a.14.14 0 01.003.005v.001l.458-.202zm-12.216-6.858c-1.66 1.352-2.331 3.24-2.313 5.377.018 2.122.711 4.515 1.801 6.97 2.181 4.912 6.015 10.214 9.586 14.343l.756-.654c-3.539-4.093-7.303-9.31-9.428-14.095-1.063-2.395-1.699-4.645-1.715-6.572-.016-1.91.574-3.477 1.944-4.594l-.631-.775zm9.768 26.75c5.902-4.819 11.593-9.716 15.042-14.16 1.723-2.22 2.925-4.375 3.284-6.39.366-2.053-.15-3.938-1.799-5.53l-.694.72c1.397 1.348 1.819 2.894 1.509 4.634-.317 1.78-1.404 3.78-3.09 5.953-3.368 4.34-8.97 9.17-14.884 14l.633.774zm16.527-26.08c-1.638-1.581-3.419-2-5.148-1.703-1.696.292-3.302 1.265-4.667 2.385-1.372 1.125-2.541 2.433-3.365 3.454a27.807 27.807 0 00-1.226 1.64l-.067.101-.018.027-.005.007-.002.002v.001l.419.274.418.273.001-.001.003-.006a26.749 26.749 0 011.255-1.69c.8-.99 1.921-2.242 3.221-3.309 1.306-1.072 2.753-1.923 4.203-2.173 1.417-.244 2.876.079 4.284 1.438l.694-.72zm-17.221 26.02c1.77 2.047 5.917 5.785 11.06 6.981 2.586.602 5.429.561 8.333-.665 2.902-1.224 5.825-3.615 8.606-7.645l-.823-.568c-2.7 3.914-5.486 6.158-8.172 7.292-2.682 1.132-5.305 1.173-7.717.612-4.852-1.128-8.827-4.69-10.53-6.66l-.757.653z" fill="#fff"/></g><defs><linearGradient id="paint0_linear" x1=".649" y1="47.329" x2="54.005" y2="-10.535" gradientUnits="userSpaceOnUse"><stop stop-color="#8571FF"/><stop offset="1" stop-color="#B1A5FF"/></linearGradient><linearGradient id="paint1_linear" x1=".649" y1="47.329" x2="54.005" y2="-10.535" gradientUnits="userSpaceOnUse"><stop stop-color="#8571FF"/><stop offset="1" stop-color="#B1A5FF"/></linearGradient></defs></svg>