<svg width="25" height="27" fill="none" xmlns="http://www.w3.org/2000/svg"><path d="M10.938 21.712s-1.563 0-1.563-1.625 1.563-6.5 7.813-6.5S25 18.462 25 20.087s-1.563 1.625-1.563 1.625h-12.5zm6.25-9.75a4.598 4.598 0 003.314-1.428 4.976 4.976 0 001.373-3.447 4.976 4.976 0 00-1.373-3.447 4.598 4.598 0 00-3.314-1.428 4.598 4.598 0 00-3.315 1.428A4.976 4.976 0 0012.5 7.087c0 1.293.494 2.533 1.373 3.447a4.598 4.598 0 003.315 1.428z" fill="url(#paint0_linear)"/><path fill-rule="evenodd" clip-rule="evenodd" d="M8.15 21.713a3.76 3.76 0 01-.338-1.625c0-2.202 1.063-4.47 3.026-6.045a9.53 9.53 0 00-3.025-.455c-6.25 0-7.813 4.875-7.813 6.5s1.563 1.625 1.563 1.625H8.15z" fill="url(#paint1_linear)"/><path d="M7.031 11.962c1.036 0 2.03-.428 2.762-1.19a4.146 4.146 0 001.145-2.873c0-1.077-.412-2.11-1.145-2.872a3.832 3.832 0 00-2.762-1.19c-1.036 0-2.03.428-2.762 1.19a4.146 4.146 0 00-1.144 2.872c0 1.078.412 2.111 1.144 2.873a3.832 3.832 0 002.762 1.19z" fill="url(#paint2_linear)"/><defs><linearGradient id="paint0_linear" x1="17.188" y1="2.212" x2="17.188" y2="21.712" gradientUnits="userSpaceOnUse"><stop stop-color="#C0ABFE"/><stop offset="1" stop-color="#AD8FFE"/></linearGradient><linearGradient id="paint1_linear" x1="5.419" y1="13.587" x2="5.419" y2="21.713" gradientUnits="userSpaceOnUse"><stop stop-color="#C0ABFE"/><stop offset="1" stop-color="#AD8FFE"/></linearGradient><linearGradient id="paint2_linear" x1="7.031" y1="3.837" x2="7.031" y2="11.962" gradientUnits="userSpaceOnUse"><stop stop-color="#C0ABFE"/><stop offset="1" stop-color="#AD8FFE"/></linearGradient></defs></svg>