<svg width="26" height="27" fill="none" xmlns="http://www.w3.org/2000/svg"><g clip-path="url(#clip0)"><path d="M11.295 22.037s-1.563 0-1.563-1.625 1.563-6.5 7.813-6.5 7.812 4.875 7.812 6.5-1.562 1.625-1.562 1.625h-12.5zm6.25-9.75a4.598 4.598 0 003.314-1.428 4.976 4.976 0 001.373-3.447 4.976 4.976 0 00-1.372-3.447 4.598 4.598 0 00-3.315-1.428 4.598 4.598 0 00-3.315 1.428 4.976 4.976 0 00-1.373 3.447c0 1.293.494 2.533 1.373 3.447a4.598 4.598 0 003.315 1.428z" fill="url(#paint0_linear)"/><path fill-rule="evenodd" clip-rule="evenodd" d="M8.507 22.038a3.76 3.76 0 01-.337-1.625c0-2.202 1.062-4.469 3.025-6.045a9.53 9.53 0 00-3.025-.455c-6.25 0-7.813 4.875-7.813 6.5s1.563 1.625 1.563 1.625h6.587z" fill="url(#paint1_linear)"/><path d="M7.389 12.287c1.036 0 2.03-.428 2.762-1.19a4.146 4.146 0 001.144-2.872c0-1.078-.412-2.111-1.144-2.873a3.832 3.832 0 00-2.762-1.19c-1.036 0-2.03.428-2.762 1.19a4.146 4.146 0 00-1.145 2.873c0 1.077.412 2.11 1.145 2.872a3.831 3.831 0 002.762 1.19z" fill="url(#paint2_linear)"/></g><defs><linearGradient id="paint0_linear" x1="17.545" y1="2.537" x2="17.545" y2="28.337" gradientUnits="userSpaceOnUse"><stop stop-color="#31E4A8"/><stop offset="1" stop-color="#00D6E8"/></linearGradient><linearGradient id="paint1_linear" x1="5.776" y1="13.912" x2="5.776" y2="24.663" gradientUnits="userSpaceOnUse"><stop stop-color="#31E4A8"/><stop offset="1" stop-color="#00D6E8"/></linearGradient><linearGradient id="paint2_linear" x1="7.389" y1="4.162" x2="7.389" y2="14.912" gradientUnits="userSpaceOnUse"><stop stop-color="#31E4A8"/><stop offset="1" stop-color="#00D6E8"/></linearGradient><clipPath id="clip0"><path fill="#fff" transform="translate(.357 .326)" d="M0 0h25v26H0z"/></clipPath></defs></svg>