<svg width="27" height="20" fill="none" xmlns="http://www.w3.org/2000/svg"><path fill-rule="evenodd" clip-rule="evenodd" d="M18.963 15.674s1.254 0 1.254-1.254-1.254-5.017-6.271-5.017c-5.018 0-6.272 3.763-6.272 5.017 0 1.254 1.254 1.254 1.254 1.254h10.035zM8.935 14.49v-.002.002zm.021-.07h9.98a.266.266 0 00.017-.003l.01-.002c-.003-.331-.21-1.292-.954-2.157-.692-.812-1.909-1.6-4.063-1.6s-3.37.79-4.064 1.6c-.744.865-.952 1.827-.954 2.157l.028.005zm10 .07v-.002.002zm-5.01-7.596a2.508 2.508 0 100-5.017 2.508 2.508 0 000 5.017zm3.762-2.508a3.763 3.763 0 11-7.525 0 3.763 3.763 0 017.525 0zm-8.86 5.368a7.376 7.376 0 00-1.543-.31 9.22 9.22 0 00-.885-.041c-5.017 0-6.272 3.763-6.272 5.017 0 .837.418 1.254 1.255 1.254H6.69a2.807 2.807 0 01-.271-1.254c0-1.267.473-2.561 1.367-3.643.305-.368.66-.713 1.061-1.023zm-2.528.903c-2.093.025-3.28.803-3.964 1.6-.749.871-.953 1.836-.953 2.163h3.763c0-1.31.405-2.617 1.154-3.763zM2.03 5.013a3.763 3.763 0 117.526 0 3.763 3.763 0 01-7.526 0zm3.763-2.509a2.509 2.509 0 100 5.017 2.509 2.509 0 000-5.017z" fill="#664DFF" stroke="#664DFF" stroke-width=".3"/><path fill-rule="evenodd" clip-rule="evenodd" d="M23.458 11.629l-4.375 4.376-2.11-2.111a.82.82 0 00-1.159 1.158l2.69 2.69c.32.32.838.32 1.158 0l4.955-4.955a.819.819 0 10-1.159-1.158z" fill="#664DFF"/><path fill-rule="evenodd" clip-rule="evenodd" d="M15.816 15.052a.82.82 0 011.158-1.158l2.11 2.11 4.376-4.375a.819.819 0 011.158 1.158l-4.375 4.376h-.001l-.579.579a.819.819 0 01-1.158 0l-2.69-2.69zm3.268-1.364l3.217-3.217a2.457 2.457 0 013.475 3.474L20.822 18.9c-.96.96-2.516.96-3.475 0l-2.69-2.69a2.457 2.457 0 113.475-3.474l.952.952z" fill="#fff"/></svg>