<svg width="56" height="56" fill="none" xmlns="http://www.w3.org/2000/svg"><circle cx="28" cy="28" r="28" fill="url(#a)"/><path d="M37.414 17H18.586A2.589 2.589 0 0 0 16 19.586v15.063a2.589 2.589 0 0 0 2.586 2.585h7.097l1.688 3.377a.703.703 0 0 0 1.258 0l1.688-3.377h7.097A2.589 2.589 0 0 0 40 34.65V19.586A2.589 2.589 0 0 0 37.414 17Zm1.18 17.649c0 .65-.53 1.18-1.18 1.18h-7.531c-.267 0-.51.15-.63.388L28 38.725l-1.254-2.508a.703.703 0 0 0-.629-.389h-7.531c-.65 0-1.18-.529-1.18-1.18V19.587c0-.65.53-1.18 1.18-1.18h18.828c.65 0 1.18.53 1.18 1.18v15.063Z" fill="#fff"/><path d="m34.005 24.72-3.714-.54-1.66-3.366a.703.703 0 0 0-1.262 0l-1.66 3.366-3.714.54a.703.703 0 0 0-.39 1.199l2.687 2.62-.634 3.698a.703.703 0 0 0 1.02.741L28 31.232l3.322 1.746c.103.054.215.081.327.081h.003a.703.703 0 0 0 .684-.86l-.628-3.66 2.687-2.62a.703.703 0 0 0-.39-1.2Zm-3.544 3.07a.703.703 0 0 0-.202.622l.456 2.659-2.388-1.256a.703.703 0 0 0-.654 0l-2.388 1.256.456-2.66a.703.703 0 0 0-.202-.622l-1.932-1.883 2.67-.388a.703.703 0 0 0 .53-.384L28 22.714l1.194 2.42c.103.207.3.351.53.384l2.67.388-1.933 1.884Z" fill="#fff"/><defs><linearGradient id="a" x1="28" y1="0" x2="28" y2="74.091" gradientUnits="userSpaceOnUse"><stop stop-color="#31E4A8"/><stop offset="1" stop-color="#00D6E8"/></linearGradient></defs></svg>