<svg width="49" height="48" fill="none" xmlns="http://www.w3.org/2000/svg"><circle cx="24.842" cy="24" r="24" fill="#D96BFF"/><path fill-rule="evenodd" clip-rule="evenodd" d="M10.27 26.905c.482-2.718 2.286-4.9 4.665-5.913a4.85 4.85 0 0 1-1.73-3.723c0-2.66 2.126-4.824 4.739-4.824s4.74 2.164 4.74 4.824c0 1.498-.676 2.839-1.733 3.724.395.169.777.37 1.142.603a7.899 7.899 0 0 1 2.31 2.276 9.746 9.746 0 0 1 1.976-1.01 6.011 6.011 0 0 1-2.482-4.881c0-3.298 2.635-5.981 5.873-5.981 3.238 0 5.872 2.683 5.872 5.981 0 2.012-.981 3.796-2.482 4.88a9.822 9.822 0 0 1 3.782 2.553 3.45 3.45 0 0 0-.997.696l-.36.36a8.016 8.016 0 0 0-5.816-2.508c-3.923 0-7.28 2.864-7.98 6.81-.04.221.057.378.12.452.059.07.189.189.396.189h2.77c-.011.59.128 1.18.418 1.713h-3.188c-.66 0-1.282-.293-1.71-.802a2.26 2.26 0 0 1-.493-1.85c.078-.442.184-.872.315-1.288h-8.25a1.918 1.918 0 0 1-1.473-.69 1.942 1.942 0 0 1-.425-1.591Zm10.7-9.636c0-1.716-1.357-3.11-3.026-3.11-1.669 0-3.026 1.394-3.026 3.11 0 1.715 1.357 3.11 3.026 3.11 1.669 0 3.026-1.395 3.026-3.11Zm12.959.712c0-2.353-1.866-4.268-4.16-4.268-2.293 0-4.159 1.915-4.159 4.268 0 2.353 1.866 4.268 4.16 4.268 2.293 0 4.159-1.915 4.159-4.268Zm-21.922 9.414a.208.208 0 0 0 .159.078h8.971a9.967 9.967 0 0 1 1.921-2.528c-1.115-1.775-3.022-2.853-5.114-2.853-2.944 0-5.462 2.15-5.988 5.113a.23.23 0 0 0 .05.19Z" fill="#fff"/><path d="M39.152 29.284a1.056 1.056 0 0 0-1.51-1.477l-5.643 5.643-2.722-2.722a1.056 1.056 0 1 0-1.494 1.494l3.47 3.469a1.056 1.056 0 0 0 1.493 0l4.991-4.992 1.399-1.398.005-.006a.288.288 0 0 1 .006-.006l.005-.005Z" fill="#fff"/></svg>