<svg width="23" height="21" viewBox="0 0 23 21" fill="none" xmlns="http://www.w3.org/2000/svg">
<path d="M4.30888 10.5623C2.05414 8.53528 1.86949 5.06427 3.89648 2.80953C5.75557 0.741565 8.8673 0.390251 11.1406 1.99172C13.6188 0.242747 17.0456 0.833916 18.7946 3.31208C20.3994 5.58602 20.0495 8.70097 17.9802 10.5622C20.5514 11.9176 22.1561 14.5896 22.1445 17.4961V19.8532C22.1445 20.2872 21.7927 20.6389 21.3587 20.6389H0.930319C0.496368 20.6389 0.144594 20.2872 0.144594 19.8532V17.4961C0.132994 14.5896 1.73773 11.9176 4.30888 10.5623ZM8.00175 2.56765C5.83512 2.56525 4.07676 4.3197 4.07432 6.48633C4.07262 8.03154 4.97809 9.4338 6.38712 10.068C6.44761 10.0955 6.5081 10.1206 6.56938 10.1466C6.76329 10.2248 6.96328 10.2871 7.16732 10.3328C7.20659 10.3415 7.2459 10.3462 7.28596 10.354C7.51393 10.3977 7.74527 10.4211 7.97739 10.424C8.0819 10.424 8.18719 10.4161 8.29169 10.4067C8.33096 10.4067 8.37028 10.4067 8.40955 10.3988C8.85612 10.3463 9.29053 10.2182 9.69418 10.0201C9.7091 10.013 9.72641 10.0138 9.74133 10.0076C9.81991 9.96986 9.89845 9.93685 9.96838 9.8944C9.96208 9.88653 9.95816 9.87792 9.9519 9.87005C9.59161 9.40709 9.30756 8.88963 9.11043 8.33713L9.08607 8.27112C8.99644 8.00723 8.92683 7.73699 8.87784 7.4626C8.87076 7.42255 8.86528 7.38402 8.85897 7.34083C8.81353 7.06152 8.78964 6.77917 8.78747 6.49618C8.78973 6.21374 8.81362 5.9319 8.85897 5.65309C8.86528 5.61226 8.87076 5.57451 8.87784 5.53132C8.92683 5.25698 8.99644 4.9867 9.08607 4.72281L9.11043 4.65679C9.30756 4.10429 9.59166 3.58683 9.9519 3.12388C9.95821 3.116 9.96212 3.10739 9.96838 3.09952C9.37146 2.75129 8.69282 2.56769 8.00175 2.56765ZM18.2159 6.49623C18.2215 4.33218 16.4718 2.57336 14.3077 2.56779C13.2933 2.56516 12.3174 2.95607 11.5853 3.65823C11.5397 3.70225 11.4949 3.74621 11.451 3.79179C11.316 3.93317 11.1916 4.08417 11.0785 4.24356C11.044 4.29226 11.0125 4.34415 10.9803 4.39442C10.8705 4.56343 10.7741 4.74076 10.692 4.92478C10.6723 4.96957 10.6574 5.01515 10.6402 5.0599C10.5573 5.26343 10.4922 5.47373 10.4453 5.68845C10.4398 5.71202 10.4382 5.73559 10.4335 5.75995C10.334 6.24781 10.334 6.75077 10.4335 7.23863C10.4382 7.26298 10.4398 7.28655 10.4453 7.31013C10.4921 7.52484 10.5573 7.73514 10.6402 7.93868C10.6574 7.98347 10.6724 8.02905 10.692 8.0738C10.7742 8.25753 10.8706 8.4346 10.9803 8.60337C11.0126 8.65364 11.044 8.70553 11.0785 8.75423C11.1916 8.91366 11.316 9.06462 11.451 9.206C11.495 9.25158 11.5398 9.29559 11.5853 9.33956C11.9034 9.64272 12.2702 9.89026 12.6704 10.0718C12.734 10.1009 12.7985 10.1276 12.8636 10.1504C13.053 10.2256 13.2479 10.286 13.4466 10.3311C13.4961 10.3421 13.5472 10.3484 13.5975 10.357C13.8108 10.3968 14.0272 10.4185 14.2441 10.4223H14.3305C14.5475 10.4186 14.7638 10.3968 14.9772 10.357C15.0275 10.3484 15.0786 10.3421 15.1281 10.3311C15.3268 10.286 15.5217 10.2256 15.711 10.1504C15.7763 10.1245 15.8407 10.0978 15.9043 10.0718C17.31 9.43716 18.2141 8.03853 18.2159 6.49623ZM8.00175 19.0675H20.5731V17.4961C20.5846 14.8336 18.9071 12.4565 16.3947 11.5751C15.046 12.1366 13.5289 12.1366 12.1801 11.5751C11.9178 11.6709 11.6622 11.784 11.4148 11.9137C11.2514 11.9978 11.1005 12.0936 10.9434 12.1903C10.8413 12.2539 10.7376 12.316 10.6393 12.3859C10.4877 12.4936 10.3447 12.6106 10.2041 12.7308C10.1137 12.8094 10.0241 12.888 9.93929 12.9665C9.80965 13.0891 9.68788 13.2187 9.5708 13.3516C9.48674 13.4474 9.40502 13.5448 9.32722 13.6454C9.22428 13.7774 9.12608 13.9126 9.03493 14.0516C8.95634 14.1695 8.88641 14.292 8.81731 14.4146C8.73872 14.5497 8.66644 14.6849 8.60047 14.8255C8.53445 14.9662 8.4763 15.1202 8.41977 15.2703C8.37028 15.4007 8.31761 15.5303 8.27678 15.6631C8.22176 15.8454 8.18328 16.0339 8.14479 16.2225C8.12122 16.3341 8.09055 16.4433 8.07329 16.5564C8.02675 16.8675 8.00285 17.1816 8.00179 17.4961V19.0675H8.00175ZM1.71604 19.0675H6.4303V17.4961C6.4303 17.2502 6.44443 17.0066 6.46644 16.7654C6.47275 16.6947 6.4837 16.6248 6.49158 16.5541C6.5128 16.3804 6.53715 16.2084 6.57016 16.0379C6.5843 15.9651 6.59921 15.892 6.61496 15.8186C6.65266 15.6437 6.6964 15.4703 6.74616 15.2985C6.76264 15.2419 6.77761 15.1845 6.79487 15.1288C7.01489 14.4255 7.3337 13.757 7.74163 13.1433L7.7723 13.0985C7.90742 12.8979 8.05174 12.7039 8.20523 12.5163L8.21071 12.5092C8.36784 12.3144 8.53836 12.125 8.7175 11.9459C8.70728 11.9459 8.69627 11.9459 8.68527 11.9459C8.46355 11.975 8.24027 11.9908 8.01662 11.993H7.97339C7.7664 11.9912 7.55974 11.9778 7.35423 11.953C7.28982 11.9451 7.22615 11.9333 7.16175 11.9231C6.99463 11.8975 6.82963 11.8642 6.66675 11.8233C6.62039 11.8115 6.57325 11.8005 6.5261 11.7872C6.31235 11.729 6.10242 11.6576 5.89755 11.5735C3.38334 12.4541 1.7043 14.8323 1.716 17.4962V19.0675H1.71604Z" fill="#664DFF"/>
</svg>
