<svg width="23" height="22" fill="none" xmlns="http://www.w3.org/2000/svg"><path d="M10.238 5.401L6.855 1.496c-.39-.45-1.105-.448-1.558.006L2.515 4.29c-.828.83-1.065 2.06-.586 3.047a29.207 29.207 0 0013.56 13.58c.987.48 2.217.242 3.045-.587l2.808-2.813c.455-.455.456-1.174.002-1.564l-3.92-3.365c-.41-.352-1.047-.306-1.458.106l-1.364 1.366a.462.462 0 01-.553.088 14.557 14.557 0 01-5.36-5.367.463.463 0 01.088-.554l1.36-1.36c.412-.415.457-1.055.1-1.466v.001z" stroke="#664DFF" stroke-width="1.5" stroke-linecap="round" stroke-linejoin="round"/></svg>