<svg width="16" height="16" fill="none" xmlns="http://www.w3.org/2000/svg"><path d="M4.286 8.847L.763 7.087a.507.507 0 01-.132-.812l5.017-5.017a.507.507 0 01.812.132L8.22 4.913a5.05 5.05 0 014.593 1.362.506.506 0 010 .716L9.947 9.858l4.3 4.3.358 1.074-1.075-.358-4.3-4.3-2.866 2.867a.507.507 0 01-.716 0 5.052 5.052 0 01-1.362-4.594zm7.43-2.19a4.06 4.06 0 00-3.624-.668.507.507 0 01-.596-.26L5.867 2.472 1.845 6.494l3.257 1.628c.22.11.33.36.26.596a4.059 4.059 0 00.667 3.625l5.687-5.687z" fill="#664DFF" stroke="#664DFF" stroke-width=".5"/></svg>