<svg width="21" height="21" fill="none" xmlns="http://www.w3.org/2000/svg"><mask id="a" fill="#fff"><path fill-rule="evenodd" clip-rule="evenodd" d="M9.63 11.778H1.85a1.11 1.11 0 110-2.222h7.776V1.779a1.111 1.111 0 112.222 0v7.78h7.78a1.111 1.111 0 010 2.222h-7.777v7.777a1.111 1.111 0 01-2.222 0v-7.78z"/></mask><path fill-rule="evenodd" clip-rule="evenodd" d="M9.63 11.778H1.85a1.11 1.11 0 110-2.222h7.776V1.779a1.111 1.111 0 112.222 0v7.78h7.78a1.111 1.111 0 010 2.222h-7.777v7.777a1.111 1.111 0 01-2.222 0v-7.78z" fill="#fff"/><path d="M9.63 11.778h.1v-.1h-.1v.1zm-7.78 0v-.1.1zm-.786-.325l.07-.071-.07.07zm0-1.572l-.071-.07.07.07zm.785-.325v-.1.1zm7.777 0v.1h.1v-.1h-.1zm0-7.777h.1-.1zm.326-.786L9.88.923l.07.07zm1.57 0l-.07.071.07-.07zm.326.786h.1-.1zm0 7.78h-.1v.1h.1v-.1zm7.78 0v.1-.1zm.786.325l-.071.07.07-.07zm0 1.571l-.071-.07.07.07zm-.786.326v.1-.1zm-7.777 0v-.1h-.1v.1h.1zm0 7.777h-.1.1zm-.325.785l-.071-.07.07.07zm-1.572 0l.071-.07-.07.07zm-.325-.785h-.1.1zm0-7.88H1.85v.2h7.78v-.2zm-7.78 0c-.268 0-.525-.107-.715-.296l-.141.141c.227.227.535.355.856.355v-.2zm-.715-.296a1.01 1.01 0 01-.296-.715h-.2c0 .321.128.63.355.856l.141-.141zm-.296-.715c0-.268.107-.525.296-.715l-.141-.141a1.21 1.21 0 00-.355.856h.2zm.296-.715c.19-.19.447-.296.715-.296v-.2c-.32 0-.629.128-.856.355l.141.141zm.715-.296h7.777v-.2H1.85v.2zm7.877-.1V1.779h-.2v7.777h.2zm0-7.777c0-.268.107-.525.296-.715L9.881.923a1.211 1.211 0 00-.355.856h.2zm.296-.715c.19-.19.447-.296.715-.296v-.2c-.32 0-.629.128-.856.355l.141.141zm.715-.296c.268 0 .525.106.715.296l.142-.141a1.211 1.211 0 00-.857-.355v.2zm.715.296c.19.19.296.447.296.715h.2c0-.321-.127-.63-.354-.856l-.142.141zm.296.715v7.78h.2v-7.78h-.2zm.1 7.88h7.78v-.2h-7.78v.2zm7.78 0c.268 0 .525.106.715.296l.141-.142a1.211 1.211 0 00-.856-.354v.2zm.715.296c.19.19.296.447.296.715h.2c0-.321-.127-.63-.355-.857l-.141.142zm.296.715c0 .268-.106.525-.296.715l.141.141c.227-.227.355-.535.355-.856h-.2zm-.296.715c-.19.19-.447.296-.715.296v.2c.321 0 .63-.128.856-.355l-.141-.141zm-.715.296h-7.777v.2h7.777v-.2zm-7.877.1v7.777h.2V11.78h-.2zm0 7.777c0 .268-.106.525-.296.715l.141.141c.227-.227.355-.535.355-.856h-.2zm-.296.715c-.19.19-.447.296-.715.296v.2c.321 0 .63-.128.856-.355l-.141-.141zm-.715.296c-.268 0-.525-.107-.715-.296l-.141.141c.227.227.535.355.856.355v-.2zm-.715-.296a1.01 1.01 0 01-.296-.715h-.2c0 .32.128.629.355.856l.141-.141zm-.296-.715v-7.78h-.2v7.78h.2z" fill="#664DFF" mask="url(#a)"/></svg>