<svg width="66" height="67" fill="none" xmlns="http://www.w3.org/2000/svg"><g filter="url(#filter0_d)"><path fill-rule="evenodd" clip-rule="evenodd" d="M58 30.162c0 13.807-11.192 25-25 25-13.807 0-25-11.193-25-25 0-13.808 11.193-25 25-25 13.808 0 25 11.192 25 25z" fill="#FB7474"/></g><path fill-rule="evenodd" clip-rule="evenodd" d="M42.36 39.654c-.288 0-.575-.115-.802-.348-1.96-2.015-4.629-3.191-7.512-3.314-3.204-.133-6.255 1.068-8.375 3.303-.47.496-1.217.475-1.666-.043a1.395 1.395 0 01.039-1.837c2.579-2.716 6.263-4.185 10.092-4.02 3.447.146 6.654 1.568 9.027 4.008.476.49.503 1.313.06 1.837a1.128 1.128 0 01-.863.414M48.89 32.337a.819.819 0 01-.24-.035l-5.545-1.624a.856.856 0 01-.153-1.58c.001-.001 4.315-2.24 5.606-2.93a.848.848 0 011.152.351.857.857 0 01-.35 1.157 537.78 537.78 0 01-3.738 1.959l3.506 1.027a.855.855 0 01-.238 1.675M18.328 32.337a.853.853 0 01-.817-.616.854.854 0 01.578-1.059l3.506-1.027a538.502 538.502 0 01-3.737-1.959.858.858 0 01-.35-1.157.848.848 0 011.151-.352c1.291.691 5.604 2.93 5.604 2.93a.857.857 0 01-.152 1.58l-5.545 1.625a.819.819 0 01-.238.035" fill="#A30000"/><defs><filter id="filter0_d" x="0" y=".161" width="66" height="66" filterUnits="userSpaceOnUse" color-interpolation-filters="sRGB"><feFlood flood-opacity="0" result="BackgroundImageFix"/><feColorMatrix in="SourceAlpha" values="0 0 0 0 0 0 0 0 0 0 0 0 0 0 0 0 0 0 127 0"/><feOffset dy="3"/><feGaussianBlur stdDeviation="4"/><feColorMatrix values="0 0 0 0 0.471927 0 0 0 0 0.561708 0 0 0 0 0.920833 0 0 0 0.21 0"/><feBlend in2="BackgroundImageFix" result="effect1_dropShadow"/><feBlend in="SourceGraphic" in2="effect1_dropShadow" result="shape"/></filter></defs></svg>