<svg width="66" height="66" fill="none" xmlns="http://www.w3.org/2000/svg"><g filter="url(#filter0_d)"><path fill-rule="evenodd" clip-rule="evenodd" d="M58 30c0 13.807-11.192 25-25 25S8 43.807 8 30C8 16.192 19.192 5 33 5s25 11.192 25 25" fill="#B0F255"/></g><path fill-rule="evenodd" clip-rule="evenodd" d="M46.92 26.808a.434.434 0 00.664-.368v-.008c0-2.056-1.632-3.723-3.646-3.723-2.014 0-3.646 1.667-3.646 3.723v.008c0 .343.378.549.664.368a5.566 5.566 0 012.982-.863c1.094 0 2.115.316 2.982.863M24.098 26.808c.244.18.567-.024.569-.368v-.008c0-2.056-1.4-3.723-3.126-3.723s-3.124 1.667-3.124 3.723v.008c.001.343.324.549.569.368.743-.547 1.617-.863 2.555-.863.939 0 1.813.316 2.557.863M33.135 38.334c-4.129 0-8.214-1.542-11.208-4.231a1.137 1.137 0 01-.062-1.647 1.235 1.235 0 011.705-.06c2.553 2.291 6.039 3.607 9.565 3.607 3.4 0 6.796-1.237 9.318-3.391.5-.426 1.262-.38 1.703.1a1.138 1.138 0 01-.105 1.646c-3 2.564-6.877 3.976-10.916 3.976" fill="#69B600"/><defs><filter id="filter0_d" x="0" y="0" width="66" height="66" filterUnits="userSpaceOnUse" color-interpolation-filters="sRGB"><feFlood flood-opacity="0" result="BackgroundImageFix"/><feColorMatrix in="SourceAlpha" values="0 0 0 0 0 0 0 0 0 0 0 0 0 0 0 0 0 0 127 0"/><feOffset dy="3"/><feGaussianBlur stdDeviation="4"/><feColorMatrix values="0 0 0 0 0.471927 0 0 0 0 0.561708 0 0 0 0 0.920833 0 0 0 0.21 0"/><feBlend in2="BackgroundImageFix" result="effect1_dropShadow"/><feBlend in="SourceGraphic" in2="effect1_dropShadow" result="shape"/></filter></defs></svg>