<svg width="66" height="67" fill="none" xmlns="http://www.w3.org/2000/svg"><g filter="url(#filter0_d)"><path fill-rule="evenodd" clip-rule="evenodd" d="M58 30.161c0 13.808-11.192 25-25 25s-25-11.192-25-25 11.192-25 25-25 25 11.192 25 25" fill="#FFF06B"/></g><path fill-rule="evenodd" clip-rule="evenodd" d="M44.29 37.076H21.71c-.669 0-1.21-.476-1.21-1.064 0-.587.541-1.064 1.21-1.064h22.58c.669 0 1.21.477 1.21 1.064 0 .588-.541 1.064-1.21 1.064M45.5 25.906c0 1.468-1.166 2.66-2.604 2.66-1.438 0-2.605-1.192-2.605-2.66 0-1.469 1.167-2.66 2.605-2.66s2.604 1.191 2.604 2.66M25.708 25.906c0 1.468-1.166 2.66-2.604 2.66-1.438 0-2.604-1.192-2.604-2.66 0-1.469 1.166-2.66 2.604-2.66 1.438 0 2.604 1.191 2.604 2.66" fill="#C6B200"/><defs><filter id="filter0_d" x="0" y=".161" width="66" height="66" filterUnits="userSpaceOnUse" color-interpolation-filters="sRGB"><feFlood flood-opacity="0" result="BackgroundImageFix"/><feColorMatrix in="SourceAlpha" values="0 0 0 0 0 0 0 0 0 0 0 0 0 0 0 0 0 0 127 0"/><feOffset dy="3"/><feGaussianBlur stdDeviation="4"/><feColorMatrix values="0 0 0 0 0.471927 0 0 0 0 0.561708 0 0 0 0 0.920833 0 0 0 0.21 0"/><feBlend in2="BackgroundImageFix" result="effect1_dropShadow"/><feBlend in="SourceGraphic" in2="effect1_dropShadow" result="shape"/></filter></defs></svg>