<svg width="66" height="67" fill="none" xmlns="http://www.w3.org/2000/svg"><g filter="url(#filter0_d)"><path fill-rule="evenodd" clip-rule="evenodd" d="M58 30.162c0 13.807-11.192 25-25 25-13.807 0-25-11.193-25-25 0-13.808 11.193-25 25-25 13.808 0 25 11.192 25 25z" fill="#FCB345"/></g><path fill-rule="evenodd" clip-rule="evenodd" d="M25.77 26.97c0 2.056-1.171 3.723-2.614 3.723-1.443 0-2.613-1.667-2.613-3.723 0-2.055 1.17-3.724 2.613-3.724s2.613 1.669 2.613 3.724M45.629 26.97c0 2.056-1.17 3.723-2.612 3.723-1.444 0-2.615-1.667-2.615-3.723 0-2.055 1.17-3.724 2.615-3.724 1.442 0 2.612 1.669 2.612 3.724M42.36 41.331c-.288 0-.575-.117-.802-.354-1.96-2.05-4.629-3.248-7.512-3.373-3.204-.136-6.255 1.087-8.375 3.361-.47.505-1.217.484-1.666-.043-.45-.528-.432-1.366.039-1.87 2.579-2.765 6.263-4.26 10.092-4.091a13.208 13.208 0 019.027 4.079c.476.499.503 1.336.06 1.87a1.12 1.12 0 01-.863.421" fill="#CC7A00"/><defs><filter id="filter0_d" x="0" y=".161" width="66" height="66" filterUnits="userSpaceOnUse" color-interpolation-filters="sRGB"><feFlood flood-opacity="0" result="BackgroundImageFix"/><feColorMatrix in="SourceAlpha" values="0 0 0 0 0 0 0 0 0 0 0 0 0 0 0 0 0 0 127 0"/><feOffset dy="3"/><feGaussianBlur stdDeviation="4"/><feColorMatrix values="0 0 0 0 0.471927 0 0 0 0 0.561708 0 0 0 0 0.920833 0 0 0 0.21 0"/><feBlend in2="BackgroundImageFix" result="effect1_dropShadow"/><feBlend in="SourceGraphic" in2="effect1_dropShadow" result="shape"/></filter></defs></svg>