<svg width="66" height="67" fill="none" xmlns="http://www.w3.org/2000/svg"><g filter="url(#filter0_d)"><path fill-rule="evenodd" clip-rule="evenodd" d="M58 30.631c0 13.809-11.192 25-25 25s-25-11.191-25-25c0-13.807 11.192-25 25-25s25 11.193 25 25" fill="#89E0AC"/></g><path fill-rule="evenodd" clip-rule="evenodd" d="M49.527 27.409c.257.16.599-.022.599-.326v-.008a3.302 3.302 0 10-6.604 0v.008c0 .304.342.486.601.326a5.117 5.117 0 012.7-.765c.992 0 1.917.28 2.704.765M21.876 27.409c.259.16.6-.022.602-.326v-.008a3.304 3.304 0 00-6.606 0v.008c0 .304.342.486.6.326a5.117 5.117 0 012.701-.765c.993 0 1.918.28 2.703.765M20.217 34.42c-.799.27-1.254 1.14-.944 1.924 1.863 4.712 7.32 8.681 13.728 8.681 6.405 0 11.863-3.97 13.726-8.68.309-.786-.145-1.655-.943-1.926-7.722-2.612-17.846-2.612-25.567 0" fill="#28874E"/><defs><filter id="filter0_d" x="0" y=".632" width="66" height="66" filterUnits="userSpaceOnUse" color-interpolation-filters="sRGB"><feFlood flood-opacity="0" result="BackgroundImageFix"/><feColorMatrix in="SourceAlpha" values="0 0 0 0 0 0 0 0 0 0 0 0 0 0 0 0 0 0 127 0"/><feOffset dy="3"/><feGaussianBlur stdDeviation="4"/><feColorMatrix values="0 0 0 0 0.471927 0 0 0 0 0.561708 0 0 0 0 0.920833 0 0 0 0.21 0"/><feBlend in2="BackgroundImageFix" result="effect1_dropShadow"/><feBlend in="SourceGraphic" in2="effect1_dropShadow" result="shape"/></filter></defs></svg>