<svg width="64" height="62" fill="none" xmlns="http://www.w3.org/2000/svg"><g filter="url(#filter0_d)" fill="#664DFF" stroke="#fff" stroke-width=".1"><path d="M15.998 25.592h-.05V41.557H31.914v-.05l-.001-15.865v-.05H15.998zM31.863 44.1H15.998a2.597 2.597 0 01-2.595-2.594V25.642a2.597 2.597 0 012.595-2.594h15.865a2.597 2.597 0 012.594 2.594v15.865a2.597 2.597 0 01-2.595 2.594zM35.825 12.371h-6.56V9.827h6.56a9.215 9.215 0 019.205 9.204v6.955l.085-.084 3.389-3.376 1.793 1.794-6.54 6.54-6.539-6.54 1.793-1.794 3.39 3.376.085.085V19.03v0a6.668 6.668 0 00-6.66-6.66h0z"/></g><defs><filter id="filter0_d" x=".354" y=".777" width="63.014" height="60.374" filterUnits="userSpaceOnUse" color-interpolation-filters="sRGB"><feFlood flood-opacity="0" result="BackgroundImageFix"/><feColorMatrix in="SourceAlpha" values="0 0 0 0 0 0 0 0 0 0 0 0 0 0 0 0 0 0 127 0"/><feMorphology radius="2" operator="dilate" in="SourceAlpha" result="effect1_dropShadow"/><feOffset dy="4"/><feGaussianBlur stdDeviation="5.5"/><feColorMatrix values="0 0 0 0 0.259792 0 0 0 0 0.289267 0 0 0 0 0.716667 0 0 0 0.12 0"/><feBlend in2="BackgroundImageFix" result="effect1_dropShadow"/><feBlend in="SourceGraphic" in2="effect1_dropShadow" result="shape"/></filter></defs></svg>