<svg width="46" height="26" fill="none" xmlns="http://www.w3.org/2000/svg"><path fill-rule="evenodd" clip-rule="evenodd" d="M37.192 14.24a.59.59 0 00.59-.59V3.575c0-1.287-1.059-2.334-2.361-2.334H11.796c-1.303 0-2.362 1.047-2.362 2.334v6.443a.65.65 0 00.137.402c.363.461 1.044.178 1.044-.41V3.576c0-.183.227-.247.37-.132l11.345 9.095a2.371 2.371 0 002.513.027.54.54 0 00.098-.064l11.29-9.058c.143-.115.37-.052.37.132V13.65c0 .326.264.59.59.59zm-27.166 5a.59.59 0 01.59.591v.086c0 .643.53 1.167 1.181 1.167h18.054a.584.584 0 010 1.168H11.797c-1.303 0-2.362-1.047-2.362-2.335v-.086a.59.59 0 01.59-.59zM35.42 2.409H11.797c-.04 0-.076.01-.113.02-.026.007-.035.044-.013.062l11.353 9.105c.28.17.828.21 1.212-.03l11.31-9.075c.022-.018.014-.055-.013-.062a.419.419 0 00-.112-.02z" fill="#fff"/><path d="M22.33 12.538l-.155.195.01.009.011.007.135-.21zm2.514.027l-.113-.223-.009.004-.008.005.13.214zm.098-.064l-.157-.195-.002.002.159.193zm-1.918-.906l-.157.195.013.01.014.009.13-.214zm1.212-.03l.133.211.012-.007.012-.01-.157-.195zm11.31-9.075l-.156-.195.157.195zm.685.953l.157.195-.157-.195zm-24.56-.953l-.157.195.157-.195zm26.362 11.16V3.575h-.5V13.65h.5zm0-10.075c0-1.428-1.174-2.584-2.613-2.584v.5c1.168 0 2.113.938 2.113 2.084h.5zM35.42.991H11.797v.5H35.42v-.5zm-23.623 0c-1.438 0-2.612 1.156-2.612 2.584h.5c0-1.146.945-2.084 2.112-2.084v-.5zM9.185 3.575v6.443h.5V3.575h-.5zm1.681 6.436V3.575h-.5v6.436h.5zm-.036-6.373l11.345 9.095.312-.39-11.344-9.095-.313.39zm11.366 9.111c.424.27.913.414 1.413.414v-.5c-.404 0-.8-.116-1.143-.335l-.27.421zm1.413.414c.482 0 .953-.133 1.366-.385l-.261-.427a2.113 2.113 0 01-1.105.312v.5zm1.35-.376a.791.791 0 00.141-.092l-.317-.387a.304.304 0 01-.052.034l.227.445zm.14-.09l11.289-9.059-.313-.39-11.29 9.058.313.39zm11.253-9.122V13.65h.5V3.575h-.5zM10.866 19.917v-.086h-.5v.086h.5zm.931.917a.926.926 0 01-.93-.917h-.5c0 .784.644 1.417 1.43 1.417v-.5zm18.054 0H11.797v.5h18.054v-.5zm-18.054 1.668h18.054v-.5H11.797v.5zm-2.612-2.585c0 1.428 1.174 2.585 2.612 2.585v-.5c-1.167 0-2.112-.938-2.112-2.085h-.5zm0-.086v.086h.5v-.086h-.5zm2.612-17.173h23.624v-.5H11.797v.5zm-.046.011a.6.6 0 01.038-.01l.008-.001v-.5c-.078 0-.147.02-.179.03l.133.481zM23.18 11.4L11.827 2.295l-.313.39 11.353 9.105.313-.39zm.924-.048a.97.97 0 01-.512.132.895.895 0 01-.438-.102l-.26.427c.188.114.443.174.696.175.255 0 .538-.057.779-.208l-.265-.424zM35.39 2.295l-11.31 9.074.313.39 11.31-9.075-.313-.39zm.03.363l.009.001a.6.6 0 01.038.01l.132-.482c-.032-.009-.1-.029-.178-.029v.5zm.283.026a.286.286 0 00-.104-.498l-.132.483a.214.214 0 01-.077-.374l.313.39zm1.83 10.966a.34.34 0 01-.34.34v.5a.84.84 0 00.84-.84h-.5zM9.685 19.831a.34.34 0 01.34-.34v-.5a.84.84 0 00-.84.84h.5zm20.5 1.837c0 .184-.15.334-.334.334v.5c.46 0 .834-.374.834-.834h-.5zm6.167-8.018c0 .464.376.84.84.84v-.5a.34.34 0 01-.34-.34h-.5zm.036-10.012a.013.013 0 01.006-.002c.002 0 .002 0-.001-.001a.057.057 0 01-.026-.02.07.07 0 01-.015-.04h.5a.431.431 0 00-.304-.415.508.508 0 00-.473.088l.313.39zM29.85 21.334c.185 0 .334.15.334.334h.5a.834.834 0 00-.834-.834v.5zM10.866 3.575a.07.07 0 01-.015.04.057.057 0 01-.026.02c-.003.001-.003 0 0 0l.005.003.313-.39a.508.508 0 00-.473-.088.431.431 0 00-.304.415h.5zm0 16.256a.84.84 0 00-.84-.84v.5a.34.34 0 01.34.34h.5zm-1.49-9.257a.804.804 0 00.947.266.878.878 0 00.543-.83h-.5c0 .19-.106.317-.229.366-.118.048-.259.028-.369-.11l-.393.308zm2.242-8.387a.286.286 0 00-.104.498l.313-.39a.214.214 0 01-.076.375l-.133-.483zm-2.433 7.83a.9.9 0 00.19.557l.393-.309a.4.4 0 01-.083-.247h-.5z" fill="#fff"/><path d="M35.556 16.711l.38.443.379-.443a2.791 2.791 0 012.096-.97 2.493 2.493 0 012.524 2.527c0 .873-.389 1.707-1.176 2.67-.79.968-1.928 2.004-3.348 3.292a.79.79 0 01-.952 0c-1.42-1.288-2.558-2.324-3.348-3.291-.787-.964-1.176-1.798-1.176-2.671a2.493 2.493 0 012.525-2.527 2.79 2.79 0 012.096.97zm.043 6.848l.336.306.336-.306c1.327-1.204 2.357-2.155 3.076-3.035.75-.918 1.032-1.608 1.032-2.256 0-1.018-.794-1.91-1.969-1.91-.66 0-1.294.314-1.693.779l-.782.912-.782-.912a2.276 2.276 0 00-1.693-.778c-1.175 0-1.969.891-1.969 1.909 0 .648.283 1.338 1.032 2.256.72.88 1.75 1.83 3.076 3.035z" fill="#fff" stroke="#fff"/><path stroke="#fff" stroke-width="1.75" stroke-linecap="round" stroke-linejoin="round" d="M12.56 13.116H1.31M13.56 17.116H6.31"/></svg>