<svg width="21" height="21" fill="none" xmlns="http://www.w3.org/2000/svg"><path d="M14.885 18.626c.216.39.076.883-.33 1.067A9.998 9.998 0 01.429 10.619a10 10 0 0114.064-9.171c.407.18.55.673.337 1.064-.213.391-.702.531-1.111.357a8.388 8.388 0 10.054 15.408c.408-.177.897-.04 1.113.349z" fill="#644DF1"/><path d="M15.005 5.795a.855.855 0 01.931.185l4 3.999c.077.08.137.175.178.279v.003a.85.85 0 010 .646v.002a.85.85 0 01-.178.28l-4 4a.851.851 0 01-1.207 0l-.001-.002a.85.85 0 010-1.207l2.558-2.546h-9.27a.85.85 0 010-1.7h9.27l-2.558-2.546a.855.855 0 01.277-1.393z" fill="#644DF1"/></svg>