<svg width="20" height="20" fill="none" xmlns="http://www.w3.org/2000/svg"><path d="M6.623 7.943a1.058 1.058 0 112.117 0 1.058 1.058 0 01-2.117 0zm4.798 0a1.059 1.059 0 112.117.001 1.059 1.059 0 01-2.117-.001zm2.501 4.334c-.655 1.516-2.191 2.496-3.912 2.496-1.758 0-3.302-.985-3.936-2.509a.512.512 0 11.946-.393c.474 1.141 1.647 1.878 2.99 1.878 1.312 0 2.479-.737 2.973-1.879a.511.511 0 11.94.407z" fill="#664DFF"/><path d="M7.288 11.664a.875.875 0 00-1.646.594l1.646-.594zm7.08.63a.875.875 0 00-1.62-.665l1.62.664zm-8.726-.036c.356.987 1.691 2.85 4.29 2.88l.02-1.75c-1.654-.018-2.474-1.197-2.664-1.724l-1.646.594zm4.29 2.88c2.607.03 4.033-1.864 4.435-2.845l-1.619-.664c-.236.575-1.15 1.779-2.796 1.76l-.02 1.75z" fill="#664DFF"/><circle cx="10" cy="10" r="9.125" stroke="#664DFF" stroke-width="1.75"/></svg>