<svg width="35" height="33" viewBox="0 0 35 33" fill="none" xmlns="http://www.w3.org/2000/svg"><mask id="a" fill="#fff"><path d="M31.298 9.996l-7.425-1.08-3.32-6.727c-1.283-2.599-4.991-2.598-6.273 0l-3.32 6.728-7.425 1.079c-2.868.416-4.013 3.944-1.939 5.966l5.373 5.237L5.7 28.593c-.49 2.857 2.51 5.035 5.075 3.688l6.64-3.492 6.641 3.492c2.561 1.346 5.565-.832 5.076-3.688L27.864 21.2l5.373-5.237c2.075-2.023.928-5.55-1.939-5.966zm-.154 3.819l-5.937 5.787a1.5 1.5 0 00-.431 1.327l1.401 8.171c.07.41-.356.72-.725.527l-7.338-3.858a1.5 1.5 0 00-1.395 0L9.38 29.627a.499.499 0 01-.725-.527l1.402-8.171a1.5 1.5 0 00-.431-1.327l-5.937-5.787a.499.499 0 01.277-.852l8.204-1.193a1.5 1.5 0 001.13-.82l3.668-7.434a.498.498 0 01.896 0l3.67 7.434c.218.443.64.75 1.128.82l8.205 1.193c.412.06.575.561.277.852z"/></mask><path d="M31.298 9.996l-7.425-1.08-3.32-6.727c-1.283-2.599-4.991-2.598-6.273 0l-3.32 6.728-7.425 1.079c-2.868.416-4.013 3.944-1.939 5.966l5.373 5.237L5.7 28.593c-.49 2.857 2.51 5.035 5.075 3.688l6.64-3.492 6.641 3.492c2.561 1.346 5.565-.832 5.076-3.688L27.864 21.2l5.373-5.237c2.075-2.023.928-5.55-1.939-5.966zm-.154 3.819l-5.937 5.787a1.5 1.5 0 00-.431 1.327l1.401 8.171c.07.41-.356.72-.725.527l-7.338-3.858a1.5 1.5 0 00-1.395 0L9.38 29.627a.499.499 0 01-.725-.527l1.402-8.171a1.5 1.5 0 00-.431-1.327l-5.937-5.787a.499.499 0 01.277-.852l8.204-1.193a1.5 1.5 0 001.13-.82l3.668-7.434a.498.498 0 01.896 0l3.67 7.434c.218.443.64.75 1.128.82l8.205 1.193c.412.06.575.561.277.852z" fill="#fff" stroke="#8164FE" stroke-width="1.6" mask="url(#a)"/></svg>