<svg width="24" height="24" fill="none" xmlns="http://www.w3.org/2000/svg"><circle cx="11.89" cy="11.935" r="10.629" stroke="#664DFF" stroke-width="1.5"/><path d="M5.352 15.809l2.706-7.908h1.46l2.625 7.908H10.9l-.614-1.887H7.233l-.64 1.887h-1.24zm2.179-2.793h2.464L8.766 9.322l-1.235 3.694zM17.397 15.809l-.15-1.372v-2.489c0-.488-.1-.842-.303-1.061-.203-.224-.524-.336-.962-.336-.249 0-.47.038-.665.112a.99.99 0 00-.453.323.891.891 0 00-.161.546h-1.304c0-.438.108-.794.323-1.068.215-.273.515-.471.9-.595.39-.129.842-.193 1.36-.193.484 0 .91.08 1.278.242.368.158.654.406.857.745.207.34.31.778.31 1.316v3.83h-1.03zm-1.999.161c-.5 0-.917-.087-1.248-.26a1.841 1.841 0 01-.745-.696 1.825 1.825 0 01-.242-.912c0-.393.1-.716.298-.968.203-.257.482-.447.838-.571a3.724 3.724 0 011.23-.187c.318 0 .628.03.93.087.303.058.6.135.894.23v.714a4.606 4.606 0 00-.8-.205c-.29-.054-.561-.08-.814-.08-.376 0-.69.074-.943.223-.253.149-.379.401-.379.757 0 .26.1.486.298.677.199.186.513.279.944.279.314 0 .591-.07.832-.211.24-.145.426-.325.558-.54.133-.215.199-.43.199-.646h.285c0 .414-.085.797-.254 1.149a2.08 2.08 0 01-.727.844c-.318.21-.703.316-1.154.316z" fill="#664DFF"/></svg>