<svg width="12" height="13" fill="none" xmlns="http://www.w3.org/2000/svg"><path fill-rule="evenodd" clip-rule="evenodd" d="M3.954 2.718v-.922A1.091 1.091 0 0 1 5.018.732h1.964a1.091 1.091 0 0 1 1.064 1.092v.894h2.864a.41.41 0 0 1 0 .818h-.706l-.45 7.17a1.664 1.664 0 0 1-1.659 1.56h-4.19a1.664 1.664 0 0 1-1.637-1.56l-.471-7.17h-.708a.41.41 0 1 1 0-.818h2.865Zm3.274 0H4.772v-.894a.246.246 0 0 1 .246-.246h1.964a.246.246 0 0 1 .246.246v.894Zm-4.59.818.421 7.12a.846.846 0 0 0 .846.792h4.19a.852.852 0 0 0 .846-.791l.442-7.093-6.744-.028Z" fill="#F06"/><path fill-rule="evenodd" clip-rule="evenodd" d="M3.721 1.791A1.324 1.324 0 0 1 5.012.501L5.018.5h1.97a1.324 1.324 0 0 1 1.291 1.324v.662h2.632a.642.642 0 0 1 0 1.284h-.488l-.437 6.951a1.897 1.897 0 0 1-1.89 1.779H3.9a1.897 1.897 0 0 1-1.866-1.779L1.578 3.77H1.09a.642.642 0 1 1 0-1.284h2.632V1.79ZM1.796 3.537l.472 7.17a1.664 1.664 0 0 0 1.637 1.56h4.19a1.664 1.664 0 0 0 1.659-1.56l.45-7.17h.707a.41.41 0 1 0 0-.818H8.046v-.895A1.091 1.091 0 0 0 6.982.734H5.018a1.091 1.091 0 0 0-1.064 1.063v.922H1.089a.41.41 0 1 0 0 .818h.708Zm2.109 7.911h4.19a.851.851 0 0 0 .846-.79l.442-7.094-6.744-.027.42 7.12a.846.846 0 0 0 .846.791Zm-.613-.805a.613.613 0 0 0 .612.572h4.19a.618.618 0 0 0 .614-.573l.427-6.846-6.249-.025.406 6.872Zm3.936-8.819a.245.245 0 0 0-.246-.245H5.018a.246.246 0 0 0-.246.245v.895h2.456v-.895Zm-.233.662v-.662a.012.012 0 0 0-.013-.012H5.018a.013.013 0 0 0-.013.012v.662h1.99Z" fill="#F06"/></svg>