<svg width="40" height="53" viewBox="0 0 40 53" fill="none" xmlns="http://www.w3.org/2000/svg">
<path d="M38.6145 13.6855H27.766C27.1671 13.6855 26.6811 13.1973 26.6811 12.6006V1.75213C26.6811 1.15329 26.195 0.667236 25.5962 0.667236H3.8991C2.10471 0.667236 0.644531 2.12742 0.644531 3.92181V49.4858C0.644531 51.2802 2.10471 52.7403 3.8991 52.7403H36.4448C38.2392 52.7403 39.6994 51.2802 39.6994 49.4858V14.7704C39.6994 14.1716 39.2133 13.6855 38.6145 13.6855ZM37.5297 49.4858C37.5297 50.0825 37.0436 50.5707 36.4448 50.5707H3.8991C3.30026 50.5707 2.81421 50.0825 2.81421 49.4858V3.92181C2.81421 3.3251 3.30026 2.83692 3.8991 2.83692H24.5114V12.6006C24.5114 14.395 25.9716 15.8552 27.766 15.8552H37.5297V49.4858Z" fill="#6585FF"/>
<path d="M39.3794 14.0041L26.3611 0.985777C25.938 0.562684 25.2502 0.562684 24.8271 0.985777C24.404 1.40887 24.404 2.0967 24.8271 2.5198L37.8454 15.5381C38.058 15.7485 38.3357 15.8549 38.6134 15.8549C38.8912 15.8549 39.1689 15.7486 39.3794 15.5381C39.8025 15.115 39.8025 14.4271 39.3794 14.0041Z" fill="#6585FF"/>
<path d="M27.6699 28.9901C28.1699 29.2788 28.1699 30.0005 27.6699 30.2892L15.3773 37.3863C14.8773 37.675 14.2523 37.3142 14.2523 36.7368L14.2523 22.5425C14.2523 21.9652 14.8773 21.6043 15.3773 21.893L27.6699 28.9901Z" stroke="#6585FF" stroke-width="2.5" stroke-linejoin="round"/>
</svg>
