<svg width="13" height="16" fill="none" xmlns="http://www.w3.org/2000/svg"><path d="M11.588 14.34H1.14a.746.746 0 100 1.492h10.448a.746.746 0 000-1.493zM1.14 12.846h.067l3.112-.284c.341-.034.66-.184.903-.425L11.94 5.42a1.433 1.433 0 00-.052-2.022L9.842 1.354a1.493 1.493 0 00-1.985-.052L1.14 8.018a1.493 1.493 0 00-.425.903l-.321 3.112a.746.746 0 00.746.814zM8.805 2.399l2.037 2.037-1.493 1.455-2-2L8.805 2.4zm-6.643 6.65l4.202-4.173L8.38 6.891l-4.18 4.18-2.238.209.201-2.232z" fill="#664DFF"/></svg>